<?xml version="1.0" encoding="UTF-8"?>
<svg id="Capa_2" data-name="Capa 2" xmlns="http://www.w3.org/2000/svg" viewBox="0 0 92.45 92.45">
  <defs>
    <style>
      .cls-1 {
        fill: #fff;
      }

      .cls-2 {
        fill: #396569;
        stroke: #fff;
        stroke-miterlimit: 10;
        stroke-width: 3px;
      }
    </style>
  </defs>
  <g id="Grids_Guides" data-name="Grids + Guides">
    <g>
      <circle class="cls-2" cx="46.22" cy="46.22" r="44.72"/>
      <g>
        <path class="cls-1" d="M81.22,36.37c-.2.74-.34,1.51-.62,2.22-1.19,2.92-3.18,4.79-6.43,4.75-.4,2.25-.68,4.48-1.22,6.65-.54,2.18-1.58,4.16-3.34,5.86,1.14.13,2.03-.14,2.84-.63.53-.33,1.01-.77,1.45-1.22.71-.73,1.45-.89,2.09-.35.62.52.62,1.35,0,2.12-2.73,3.39-7.67,3.83-10.96.99-.14-.12-.28-.23-.41-.34-3.37,3.08-7.83,2.82-10.85.03-3.62,2.94-7.25,2.97-10.89.01-3.61,2.94-7.23,2.95-10.86,0-4.46,2.98-6.53,2.98-10.92-.05-1.26,1.21-2.77,1.95-4.52,2.17-1.64.21-3.17-.14-4.6-.93-.71-.39-.93-1.15-.6-1.81.32-.65,1.04-.89,1.81-.6.55.2,1.09.42,1.8.68,0-.4,0-.65,0-.91.11-2.75.02-5.53.37-8.25.55-4.31,2.26-8.15,5.54-11.14,2.3-2.1,5.09-3.14,8.15-3.47,1.42-.15,2.86-.15,4.47-.22-.3-1.2-.51-2.43-.92-3.59-1.19-3.32-3.27-5.96-6.25-7.88-.23-.15-.46-.3-.67-.47-.66-.53-.8-1.24-.39-1.86.43-.64,1.21-.84,1.92-.36,1.07.73,2.15,1.46,3.11,2.32,2.49,2.24,4.2,5.01,5.15,8.23.04.15.11.29.23.61.18-.43.3-.73.42-1.03.93-2.34,2.28-4.4,4.06-6.17.71-.7,1.53-.78,2.11-.21.59.57.53,1.36-.15,2.11-.11.12-.22.23-.33.35-2.06,2.17-3.38,4.72-3.99,7.65-.06.31-.11.63-.17,1.01.18.06.36.14.54.19,5.24,1.25,9.57,3.99,13.22,7.91,1.58,1.7,3.19,3.38,4.9,4.95,1.94,1.78,4.31,1.96,6.74,1.31,1.76-.47,2.36-1.92,2.57-3.6-.64-.09-1.28-.12-1.88-.28-1.89-.48-3.17-1.75-4.08-3.4-.74-1.33-1.13-2.78-1.12-4.32,0-.96.49-1.51,1.45-1.52,2-.02,4.01-.01,6.02,0,1.48.01,2.73.63,3.75,1.54.9-.45,1.72-.91,2.59-1.29.36-.16.8-.22,1.2-.22,2.07-.03,4.15-.02,6.22-.04.74,0,1.16.41,1.49,1v1.5ZM17.74,55.42c1-.43,1.62-1.1,2.16-1.87.73-1.05,1.8-1.07,2.48.01,1.93,3.08,6.41,3.15,8.39-.02.42-.68,1.04-.95,1.61-.68.38.18.73.53.98.89,1.2,1.68,3.14,2.48,5.14,2.03,1.35-.3,2.37-1.09,3.14-2.25.68-1.03,1.73-1.01,2.45-.01.04.06.07.11.11.17,2.05,2.96,6.13,2.96,8.18,0,.81-1.17,1.85-1.26,2.56-.15,2.08,3.24,6.55,3.05,8.44-.02.63-1.02,1.69-.99,2.41-.03.3.4.61.78.92,1.18.16-.11.26-.17.34-.24,2.12-1.68,3.12-4.01,3.59-6.56.33-1.8.43-3.66.57-5.49.1-1.3.52-1.77,1.8-1.78.27,0,.55,0,.82,0,2.44,0,4.07-1.44,4.43-3.98-1.14,0-2.28.06-3.41-.02-1.65-.11-2.91.44-3.87,1.8-.63.89-1.59.85-2.3,0-.16-.19-.28-.44-.48-.58-.57-.4-1.14-1.02-1.76-1.07-1.66-.15-3.35-.05-5.03-.05.37,2.48,1.98,3.9,4.43,3.9.34,0,.68,0,1.03,0,1.05.03,1.58.59,1.52,1.65-.04.7-.1,1.41-.2,2.11-.41,2.85-2.25,4.82-5.04,5.42-3.58.77-6.74-.04-9.38-2.6-1.62-1.57-3.15-3.22-4.7-4.87-5.06-5.38-11.36-7.75-18.64-7.54-4.77.14-8.36,2.34-10.62,6.63-2.32,4.41-2.2,9.17-2.11,14.03Z"/>
        <path class="cls-1" d="M43.08,72.73c-1.23,1.16-2.68,1.88-4.38,2.14-2.83.45-6.16-1.14-7.55-3.65-.41-.74-.26-1.5.4-1.92.64-.41,1.4-.27,1.9.47.75,1.13,1.72,1.94,3.04,2.28,2.02.52,4.07-.27,5.26-2.01.35-.51.71-.97,1.39-.96.68,0,1.03.47,1.38.97,1.45,2.1,4.15,2.8,6.33,1.55.7-.4,1.28-1.07,1.83-1.69.43-.48.83-.93,1.54-.8,1.01.18,1.43,1.25.84,2.18-1.38,2.18-3.38,3.41-5.95,3.62-2.1.17-3.95-.49-5.55-1.85-.1-.09-.2-.18-.31-.27-.03-.03-.08-.03-.16-.06Z"/>
        <path class="cls-1" d="M26.56,64.6c-1.07.97-2.24,1.67-3.62,2.01-3.18.78-6.57-.59-8.28-3.37-.48-.78-.38-1.54.26-2,.67-.47,1.46-.32,1.99.48.77,1.15,1.78,1.95,3.13,2.25,2.01.45,3.94-.34,5.15-2.02.27-.37.64-.73,1.04-.91.59-.26,1.14.08,1.67.85,1.48,2.14,4.17,2.87,6.37,1.6.76-.44,1.36-1.18,1.96-1.85.66-.74,1.48-.89,2.13-.27.5.48.54,1.15.1,1.86-2.42,3.92-7.83,4.78-11.36,1.81-.17-.14-.34-.29-.54-.45Z"/>
        <path class="cls-1" d="M59.3,64.6c-1.32,1.25-2.85,1.97-4.63,2.2-2.76.36-6-1.25-7.34-3.69-.39-.71-.25-1.46.36-1.88.63-.44,1.42-.31,1.91.4.72,1.05,1.59,1.86,2.83,2.24,2,.62,4.17-.08,5.41-1.77.08-.11.15-.23.23-.34.74-1.05,1.81-1.1,2.48-.02,1.99,3.16,6.46,3.1,8.39.02.52-.83,1.31-1,1.98-.55.69.45.79,1.27.25,2.1-2.5,3.88-7.77,4.68-11.33,1.74-.17-.14-.34-.29-.54-.45Z"/>
        <path class="cls-1" d="M45.95,20c.01.74-.57,1.35-1.31,1.38-.78.03-1.41-.58-1.4-1.36,0-.73.63-1.35,1.36-1.35.75,0,1.35.57,1.36,1.33Z"/>
        <path class="cls-1" d="M77.67,51.02c0,.74-.61,1.35-1.34,1.35-.75,0-1.4-.66-1.37-1.4.03-.72.67-1.34,1.39-1.32.73.02,1.33.64,1.32,1.37Z"/>
        <path class="cls-1" d="M23.5,40.99c.13-.19.31-.59.6-.88,2.07-2.08,4.68-2.69,7.5-2.63.68.01,1.18.61,1.21,1.26.03.62-.37,1.22-1.02,1.34-.87.16-1.76.23-2.63.36-1.28.2-2.36.77-3.27,1.71-.44.46-.98.67-1.61.38-.55-.26-.81-.71-.78-1.54Z"/>
        <path class="cls-1" d="M39,49c-.01.74-.62,1.33-1.37,1.32-.74-.01-1.33-.64-1.31-1.38.02-.73.66-1.35,1.37-1.33.73.02,1.32.65,1.31,1.39Z"/>
      </g>
    </g>
  </g>
</svg>