<?xml version="1.0" encoding="UTF-8"?>
<svg id="Capa_2" data-name="Capa 2" xmlns="http://www.w3.org/2000/svg" viewBox="0 0 91.85 91.85">
  <defs>
    <style>
      .cls-1 {
        fill: #fff;
      }

      .cls-2 {
        fill: #396569;
        stroke: #fff;
        stroke-miterlimit: 10;
        stroke-width: 3px;
      }
    </style>
  </defs>
  <g id="Grids_Guides" data-name="Grids + Guides">
    <g>
      <circle class="cls-2" cx="45.93" cy="45.93" r="44.43"/>
      <g>
        <path class="cls-1" d="M51.12,68.69c-.59,4.69-4.99,8.32-9.57,8.66-3.72.27-9.87.28-13.59,0-5.28-.4-9.19-4.53-9.58-9.77-.33-4.42-.4-13.59.46-17.78,1.27-6.2,6.42-10.17,8.62-15.94.67-1.75,2.3-8.21,1.62-9.72-.14-.3-.75-.65-.99-1.05-.58-.99-.53-6.57-.41-7.98.14-1.55,1.38-2.94,2.94-3.2,1.56-.26,6.3-.21,7.95-.04,1.74.18,3.12,1.35,3.4,3.11.24,1.53.22,6.76-.44,8.03-.27.52-1.06,1.16-1.15,1.45-.21.69.42,4.51.61,5.46.67,3.34,2.14,6.69,4.19,9.4.84-.47,1.52-.77,2.51-.86,5.65-.49,11.97.38,17.69,0,1.08-.04,1.81.83.93,1.7l-18.91.25c-1.89.56-1.63,2.65-1.29,4.2,3.68-1.15,7.21-.78,10.87.2,5.42,1.45,8.3,3.04,14.33,2.59.82-.06,5.02-.83,5.49-1.21.69-.57.9-4.71,0-5.39-1.39-1.05-5.86-.16-7.68-.5-.88-.66-.52-1.7.52-1.84,1.3-.17,5.34-.13,6.62.09,4.06.69,3.24,5.38,2.5,8.29-1.26,4.94-5.05,9.42-9.7,11.51-.67.3-3.44,1.06-3.57,1.45.12,2.69-.26,5.69-.04,8.35s1.68,2.24,3.53,3.36c2.8,1.7,4.52,4.75.3,5.85-4.91-.36-10.43.45-15.27,0-.84-.08-1.45-.31-1.95-1.03-1.45-2.12.67-3.87,2.36-4.89,1.69-1.02,3.2-.74,3.41-3.1.25-2.78-.21-5.91,0-8.73-2.41-.68-4.65-1.67-6.71-3.09v12.18ZM30.98,13.76c-.61.12-1.31.73-1.43,1.36-.19,1.02-.14,5.2-.01,6.32.09.76.57,1.3,1.3,1.49,1.01.26,6.15.22,7.35.09.82-.09,1.33-.35,1.68-1.12.41-.92.41-4.91.28-6.05s-.7-1.99-1.95-2.14-6.1-.18-7.22.05ZM29.92,32.51h9.67c-.51-2.51-1.13-5.05-1.12-7.63l-7.27.08-.15.22c-.02,2.48-.49,4.94-1.14,7.32ZM20.43,53.62v3.81c3.91-.4,6.39-4.25,9.86-5.3,2.16-.66,6.18-.69,8.38-.19,3.83.87,6.45,5.13,10.6,5.49-.09-.78.18-1.89-.1-2.6-.6-1.5-5.76-5.16-7.35-5.86-2.61-1.15-5.99-1.36-8.83-1.21-.89.04-2.87.9-3.22-.32-.42-1.45,1.84-1.48,2.84-1.55,3.44-.22,7.25.05,10.4,1.52.71.33,1.26.84,1.98,1.09-.33-1.93-1.05-3.88-1.13-5.86-.02-.39.21-.76.21-1.12,0-.58-1.83-3.09-2.27-3.87-.37-.64-1.07-2.57-1.36-2.92-.1-.12-.21-.19-.37-.19l-10.85.03c-1.58,5.01-6.2,8.73-7.89,13.59-.23.67-.67,1.99-.69,2.66-.01.28-.13.54.27.46,1.45-.79,2.6-2.04,3.98-2.91.91-.57,2.54-1.74,3.11-.26.24.91-1.77,1.7-2.48,2.2-1.66,1.18-3.14,2.51-5.07,3.3ZM76.05,48.5c-4.32.97-8.32,1.25-12.69.32-2.58-.55-5-1.68-7.55-2.31-3.11-.77-6.23-.91-9.34-.05,3.87,14.18,23.87,15.64,29.58,2.05ZM49.26,59.48c-5.02-.45-7.83-5.55-12.74-5.95-1.43-.12-3.58-.08-4.97.23-2.63.59-4.41,2.81-6.72,4.07-1.38.76-2.88,1.26-4.4,1.64v7.07h28.83v-7.07ZM63.58,59.85h-3.91v9.58c0,.54-1.02,1.87-1.48,2.24-1.4,1.09-4.46,1.43-4.64,3.61.32.13.65.19,1,.21,4.69.34,9.79-.28,14.53,0,1.78-.21-.42-1.92-1.05-2.32-1.4-.9-4.45-1.71-4.45-3.92v-9.39ZM49.08,68.59h-28.65c.98,4.21,3.97,6.61,8.27,6.89,3.48.23,9.03.27,12.48,0,3.97-.31,7.2-2.91,7.9-6.89Z"/>
        <path class="cls-1" d="M32.28,61.18c.71-.11,1.03.68,1.62.91,1.83.73,2.6-1.02,3.35-.95,1.85.82.31,2.34-.96,2.76-1.52.5-2.97.32-4.21-.73-.79-.67-.95-1.81.2-1.99Z"/>
        <path class="cls-1" d="M24.89,59.94c1.74-1.42,2.07.81,1.85,2.22s-1.85.96-1.85.57v-2.79Z"/>
        <path class="cls-1" d="M42.94,59.94c1.74-1.42,2.07.81,1.85,2.22s-1.85.96-1.85.57v-2.79Z"/>
      </g>
    </g>
  </g>
</svg>