<?xml version="1.0" encoding="UTF-8"?>
<svg id="Capa_2" data-name="Capa 2" xmlns="http://www.w3.org/2000/svg" viewBox="0 0 92.45 92.45">
  <defs>
    <style>
      .cls-1 {
        fill: #fff;
      }

      .cls-2 {
        fill: #396569;
        stroke: #fff;
        stroke-miterlimit: 10;
        stroke-width: 3px;
      }
    </style>
  </defs>
  <g id="Grids_Guides" data-name="Grids + Guides">
    <g>
      <circle class="cls-2" cx="46.22" cy="46.22" r="44.72"/>
      <g>
        <path class="cls-1" d="M13.05,68.24c.39-.7.77-1.4,1.21-2.2-.54-.78-.87-1.8-.6-2.96.36-1.55,1.57-2.65,3.13-2.87.28-.04.58-.15.81-.31.88-.6,1.81-.89,2.87-.63.06.02.16.06.19.03.62-.57,1.23-1.16,1.84-1.74,0-4.88-.02-9.76-.03-14.64,0-.02-.02-.04-.04-.09-.53-.12-1.08-.21-1.61-.36-1.71-.49-2.35-1.82-1.68-3.46,1.82-4.42,4.5-8.3,7.54-11.94,4.6-5.5,9.87-10.33,15.29-15,.87-.75,1.73-1.5,2.6-2.24,1-.85,2.2-.89,3.19-.05,6.03,5.11,11.97,10.33,17.15,16.34,3.34,3.87,6.3,8,8.29,12.76.77,1.85.04,3.25-1.92,3.67q-1.37.29-1.37,1.66v12.25c0,.23,0,.46,0,.74,1.11,0,2.15.19,2.97.86.62.51,1.09,1.2,1.65,1.79.14.15.35.35.52.34,2.91-.18,4.93,3.38,3.09,5.87-.02.03-.03.08,0,.01.39.64.88,1.17,1.08,1.79.62,1.91-.66,3.76-2.66,3.97-.3.03-.6.02-.91.02-19.57,0-39.14,0-58.7,0-2.39,0-3.04-.42-3.92-2.57,0-.35,0-.69,0-1.04ZM46.17,42.89c3.54-.15,7.08-.26,10.61-.44,4.75-.25,9.47-.74,14.13-1.69.87-.18.98-.38.65-1.19-1.75-4.18-4.3-7.87-7.19-11.33-5.26-6.29-11.39-11.68-17.61-16.98-.38-.33-.7-.32-1.08.01-1.02.9-2.07,1.77-3.1,2.66-5.43,4.72-10.72,9.59-15.26,15.21-2.6,3.22-4.88,6.64-6.47,10.49-.29.7-.16.96.56,1.1.7.14,1.39.29,2.1.39,7.51,1.12,15.06,1.69,22.65,1.76ZM59.33,65.69c-.1-.22-.17-.38-.23-.53-.62-1.64-.05-3.57,1.5-4.39,1.21-.64,2.54-1.11,3.85-1.53.55-.18,1.28.13,1.8-.09.56-.23.94-.86,1.46-1.24.3-.21.43-.4.43-.77-.01-2.76,0-5.53-.01-8.29,0-.15-.03-.29-.05-.5-.28,0-.54,0-.79,0-1.88,0-3.76,0-5.64,0-.66,0-1.02-.38-1-.94.02-.54.36-.85,1.01-.85,1.58-.01,3.15,0,4.73,0,.56,0,1.11,0,1.7,0v-3.43c-14.6,2-29.15,2.06-43.72,0v3.42c.29,0,.52,0,.75,0,1.86,0,3.71-.02,5.57.02.33,0,.79.19.97.45.42.62-.06,1.31-.89,1.32-1.75.02-3.5,0-5.25,0-.38,0-.76,0-1.15,0v8.86c2.12-.08,3.74.72,4.8,2.53.2.34.39.46.79.47,2.27.04,3.97,2.14,3.56,4.37-.07.37-.22.72-.36,1.15,1.57,0,3.07-.03,4.58.01.56.01.67-.19.67-.71-.02-4.38-.01-8.77,0-13.15,0-1.61.84-2.44,2.43-2.44,3.52,0,7.04,0,10.56,0,1.86,0,2.65.77,2.65,2.62,0,4.28,0,8.55,0,12.83,0,.25,0,.5,0,.8h5.27ZM46.2,70.02c7.32,0,14.65,0,21.97,0,2.64,0,5.27,0,7.91,0,.96,0,1.49-.45,1.51-1.23.01-.79-.51-1.23-1.47-1.25-.09,0-.17,0-.26,0-19.74,0-39.49,0-59.23,0-.24,0-.48,0-.71.03-.63.08-.93.5-1.01,1.09-.08.59.29,1.15.85,1.28.31.07.64.08.96.08,9.83,0,19.66,0,29.49,0ZM23.5,65.73c1.97,0,3.93,0,5.9,0,.32,0,.65-.02.96-.08.77-.16,1.33-.85,1.36-1.6.04-.96-.38-1.71-1.19-1.93-.37-.1-.81-.04-1.2.03-.9.15-1.16.03-1.48-.82-.05-.14-.1-.29-.16-.42-.49-1.13-1.35-1.78-2.58-1.86-1.28-.08-2.25.47-2.89,1.59-.5.87-.74.96-1.66.55-.77-.34-1.5-.26-2.1.33-.37.37-.76.51-1.26.51-.89,0-1.49.49-1.71,1.3-.36,1.33.46,2.39,1.91,2.4,2.03.02,4.06,0,6.09,0ZM68.89,65.73c1.16,0,2.33,0,3.49,0,.91,0,1.81.02,2.72,0,.98-.02,1.59-.45,1.83-1.25.46-1.49-.67-2.72-2.19-2.39-1.13.24-1.29.15-1.63-.92-.38-1.19-1.39-2.02-2.6-2.11-1.33-.1-2.36.4-3.01,1.59-.47.85-.75.96-1.66.55-.72-.32-1.43-.28-1.99.25-.45.42-.91.56-1.5.61-1.11.09-1.74.91-1.64,1.99.1,1.02.85,1.67,2.02,1.68,2.05.02,4.1,0,6.15,0ZM52.05,64.37c.06-.01.12-.03.18-.04,0-1.94,0-3.87,0-5.81,0-2.18,0-4.36,0-6.54,0-.32.06-.71-.43-.71-1.5-.01-3.01,0-4.58,0,.7,4.78,1.82,9.29,4.83,13.1ZM40.24,64.3c.06.02.12.03.17.05,3.01-3.81,4.12-8.32,4.83-13.08-1.44,0-2.79,0-4.15,0-.85,0-.88.02-.88.86,0,3.87,0,7.73,0,11.6,0,.19.02.38.02.57ZM50.81,65.7c-2.36-2.81-3.6-6.07-4.59-9.46-.97,3.41-2.22,6.66-4.57,9.46h9.16Z"/>
        <path class="cls-1" d="M44.33,19.61c.87,0,1.32.68.98,1.3-.56,1.04-1.16,2.06-1.77,3.07-.26.44-.69.6-1.17.33-.49-.27-.64-.73-.39-1.21.57-1.06,1.18-2.1,1.81-3.12.13-.21.43-.3.53-.38Z"/>
        <path class="cls-1" d="M67.86,36.52c-.15.17-.33.56-.61.65-.28.09-.82-.03-.96-.24-.71-1.08-1.36-2.2-1.94-3.36-.1-.21.12-.77.35-.9.26-.16.92-.18,1.03,0,.76,1.15,1.41,2.36,2.1,3.55.02.03.01.08.03.31Z"/>
        <path class="cls-1" d="M34.53,26.19c-.14.33-.2.54-.3.72-.52.92-1.05,1.83-1.59,2.74-.35.59-.81.75-1.28.49-.49-.27-.61-.81-.28-1.4.54-.96,1.1-1.9,1.66-2.85.23-.39.6-.57.98-.39.31.14.55.46.81.69Z"/>
        <path class="cls-1" d="M54.42,37.13c.12.1.42.26.58.5.58.93,1.12,1.89,1.65,2.85.31.55.17,1.08-.3,1.34-.45.25-.92.11-1.25-.44-.58-.96-1.15-1.93-1.69-2.91-.36-.66.09-1.36,1.01-1.35Z"/>
        <path class="cls-1" d="M25.7,37.27c-.8,0-1.29-.64-1-1.21.57-1.11,1.2-2.19,1.85-3.26.26-.43.72-.45,1.15-.2.42.25.63.64.38,1.09-.59,1.08-1.21,2.14-1.85,3.19-.13.21-.43.31-.53.39Z"/>
        <path class="cls-1" d="M58.76,34.21c-.15.16-.34.55-.62.63-.28.08-.82-.03-.96-.24-.7-1.06-1.32-2.17-1.93-3.29-.22-.4-.03-.83.35-.99.31-.12.93-.15,1.04.02.75,1.15,1.41,2.36,2.09,3.56.02.03.01.08.04.31Z"/>
        <path class="cls-1" d="M45.79,15.05c-.09.29-.11.42-.17.53-.59,1.03-1.17,2.06-1.78,3.08-.27.44-.69.6-1.17.33-.47-.26-.64-.71-.4-1.16.59-1.1,1.21-2.19,1.91-3.23.14-.21.68-.3.96-.21.28.08.47.46.66.66Z"/>
        <path class="cls-1" d="M54.04,33.45c-.18.19-.38.57-.66.64-.29.08-.81-.05-.96-.27-.69-1.04-1.3-2.13-1.9-3.23-.23-.41-.05-.81.35-1.06.39-.25.85-.29,1.1.1.7,1.11,1.33,2.26,1.98,3.41.04.07.04.17.09.41Z"/>
        <path class="cls-1" d="M62.78,40.01c-.12-.11-.43-.28-.6-.55-.58-.93-1.13-1.89-1.67-2.85-.3-.54-.17-1,.31-1.28.48-.28.93-.16,1.26.38.57.94,1.13,1.89,1.65,2.85.39.72,0,1.46-.96,1.44Z"/>
        <path class="cls-1" d="M36.68,41.94c-.79,0-1.27-.67-.97-1.23.58-1.11,1.22-2.18,1.87-3.25.25-.4.68-.44,1.09-.21.43.24.66.63.42,1.08-.59,1.1-1.22,2.18-1.87,3.25-.13.21-.44.3-.55.36Z"/>
        <path class="cls-1" d="M47.84,14.3c.1.07.4.17.53.38.62,1.01,1.22,2.04,1.79,3.08.26.48.15.94-.34,1.22-.5.29-.94.11-1.22-.35-.59-.98-1.17-1.97-1.72-2.97-.37-.67.05-1.36.96-1.36Z"/>
        <path class="cls-1" d="M49.48,24.43c-.13-.11-.46-.27-.62-.53-.59-.95-1.13-1.93-1.69-2.91-.28-.5-.18-.92.3-1.23.46-.3.95-.18,1.26.34.58.96,1.15,1.92,1.69,2.91.37.68-.04,1.41-.94,1.42Z"/>
        <path class="cls-1" d="M34.76,34.93c-.8-.02-1.25-.67-.95-1.25.57-1.09,1.19-2.15,1.82-3.2.26-.44.71-.48,1.14-.24.45.25.67.65.39,1.14-.59,1.06-1.19,2.1-1.82,3.13-.14.22-.46.34-.58.42Z"/>
        <path class="cls-1" d="M32.19,35.98c-.14.33-.21.53-.31.72-.52.91-1.05,1.83-1.58,2.73-.34.57-.82.74-1.28.49-.48-.26-.6-.81-.27-1.4.54-.95,1.09-1.9,1.64-2.85.23-.4.6-.63,1.02-.42.31.15.53.48.78.72Z"/>
        <path class="cls-1" d="M39.3,24.01c-.07.28-.07.4-.12.49-.61,1.07-1.2,2.15-1.84,3.19-.27.45-.73.53-1.19.26-.43-.25-.58-.69-.36-1.12.59-1.1,1.21-2.19,1.9-3.23.14-.21.67-.31.95-.22.28.08.48.45.65.63Z"/>
        <path class="cls-1" d="M56.77,27.37c-.15.17-.35.55-.63.62-.29.08-.82-.03-.96-.25-.7-1.06-1.33-2.17-1.92-3.29-.21-.4-.01-.8.39-1.05.38-.22.81-.25,1.05.12.7,1.11,1.34,2.26,2,3.39.04.07.03.17.07.44Z"/>
        <path class="cls-1" d="M59.16,25.46c.11.09.4.23.54.46.6.97,1.17,1.96,1.73,2.96.29.52.12,1.04-.35,1.28-.52.25-.94.08-1.22-.38-.59-1-1.18-2.01-1.72-3.03-.33-.63.13-1.3,1.02-1.28Z"/>
        <path class="cls-1" d="M39.54,34.17c-.82.01-1.29-.66-.97-1.26.57-1.08,1.2-2.14,1.83-3.19.25-.4.66-.46,1.08-.25.45.23.68.63.45,1.07-.59,1.12-1.24,2.22-1.9,3.3-.12.19-.41.27-.5.33Z"/>
        <path class="cls-1" d="M47.05,39.88c0,.47.02.95,0,1.42-.03.53-.35.85-.86.86-.52.02-.89-.29-.91-.81-.04-.99-.04-1.98,0-2.97.02-.54.4-.79.93-.77.53.02.84.31.86.85.01.47,0,.95,0,1.42,0,0,0,0,0,0Z"/>
        <path class="cls-1" d="M47.05,32.66c0,.47.02.95,0,1.42-.02.53-.31.86-.84.89-.56.03-.92-.3-.95-.85-.04-.97-.04-1.94,0-2.91.02-.53.38-.82.9-.81.52,0,.86.28.88.83.02.47,0,.95,0,1.42h0Z"/>
        <path class="cls-1" d="M47.05,25.49c0,.47.02.95,0,1.42-.02.53-.32.86-.85.88-.56.02-.92-.31-.94-.85-.04-.97-.03-1.94,0-2.91.02-.54.38-.81.91-.79.53.01.85.29.87.83.02.47,0,.95,0,1.42Z"/>
        <path class="cls-1" d="M32.1,52.55c1.25,0,2.5,0,3.75,0,.73,0,1.07.3,1.06.92,0,.61-.35.9-1.08.9-2.5,0-5,0-7.5,0-.71,0-1.07-.32-1.06-.92,0-.59.36-.89,1.09-.89,1.25,0,2.5,0,3.75,0Z"/>
        <path class="cls-1" d="M60.36,52.55c1.25,0,2.5,0,3.75,0,.73,0,1.07.3,1.07.9,0,.61-.34.91-1.07.91-2.5,0-5,0-7.5,0-.73,0-1.07-.3-1.07-.91,0-.61.33-.9,1.07-.91,1.25,0,2.5,0,3.75,0Z"/>
      </g>
    </g>
  </g>
</svg>