<?xml version="1.0" encoding="UTF-8"?>
<svg id="Capa_2" data-name="Capa 2" xmlns="http://www.w3.org/2000/svg" viewBox="0 0 92.45 92.45">
  <defs>
    <style>
      .cls-1 {
        fill: #fff;
      }

      .cls-2 {
        fill: #396569;
        stroke: #fff;
        stroke-miterlimit: 10;
        stroke-width: 3px;
      }
    </style>
  </defs>
  <g id="Grids_Guides" data-name="Grids + Guides">
    <g>
      <circle class="cls-2" cx="46.22" cy="46.22" r="44.72"/>
      <g>
        <path class="cls-1" d="M83.31,57.67c-.61,1.85-1.93,3.1-3.59,3.96-1.47.76-3.03,1.35-4.54,2.04-.45.21-.92.43-1.28.76-2.38,2.13-4.83,4.14-7.79,5.46-3.02,1.34-6.16,2.1-9.46,2.11-6.98.03-13.95.06-20.93,0-6.5-.05-12.08-2.44-16.69-7.03-.77-.77-1.61-1.31-2.64-1.65-1.9-.64-3.71-1.5-5.27-2.8-1.08-.91-1.89-1.99-1.97-3.52h2.28c.31,1.24,1.27,1.94,2.28,2.56,2.21,1.34,4.65,2.1,7.12,2.75,4.82,1.26,9.74,1.93,14.7,2.33,5.71.46,11.42.56,17.14.27,7.27-.37,14.48-1.12,21.45-3.35,1.53-.49,3-1.19,4.44-1.91.69-.35,1.32-.9,1.86-1.47.81-.84.83-1.7-.03-2.48-.83-.75-1.82-1.32-2.75-1.96-.21-.15-.46-.24-.74-.39.31-.71.61-1.38.93-2.1,2.37,1.14,4.59,2.32,5.49,4.97v1.45ZM69.16,65.34c-15.5,2.75-30.84,2.75-46.3-.09.21.17.31.27.42.35,3.6,2.6,7.63,4.03,12.07,4.08,7.09.07,14.19.05,21.29,0,4.36-.03,8.34-1.37,11.93-3.86.17-.12.32-.26.6-.48Z"/>
        <path class="cls-1" d="M39.12,56.95c.39.58.76,1.01.97,1.5.17.4.32.99.14,1.32-.17.33-.75.61-1.16.62-1.59.04-3.19.07-4.77-.1-1.94-.21-3.47-1.26-4.58-2.86-.27-.4-.56-.51-1.01-.49-4,.15-7.96-.1-11.84-1.15-.72-.19-1.44-.4-2.13-.69-3.09-1.31-3.84-5.29-1.32-7.52,5.06-4.46,10.88-7,17.77-6.88,5.21.1,10.43.03,15.64.02,6.77-.01,12.38,2.54,16.82,7.63.32.37.64.49,1.11.49,2.8-.02,5.6-.01,8.4,0,2.08,0,3.1,1.53,2.33,3.47-.51,1.3-1.06,2.59-1.54,3.9-.2.55-.46.76-1.08.75-6.4-.03-12.79-.02-19.19-.02h-14.58ZM46.22,48.81h-2.26c-.34-2.95-2.39-4.45-4.75-5.67-.16-.08-.37-.09-.56-.09-2.94-.01-5.89-.02-8.83-.02-.26,0-.51.03-.88.05.43.65.77,1.26,1.2,1.79.19.24.55.46.85.47,1.91.04,3.81.03,5.72.01.76,0,1.21.32,1.44,1.05.29.94.63,1.87.94,2.81.44,1.32,0,1.94-1.39,1.94-1.49,0-2.98,0-4.49,0,.11.79.2,1.52.3,2.27h-2.24c-.19-.78-.3-1.53-.54-2.23-.93-2.75-2.51-5.14-4.23-7.45-.11-.14-.46-.21-.67-.16-3.96.9-7.43,2.78-10.51,5.4-1.71,1.46-1.35,3.5.8,4.17,2.79.87,5.66,1.46,8.6,1.46,15.52.02,31.04.01,46.56.01.17,0,.35.03.5-.01.14-.03.33-.11.38-.23.44-1.05.86-2.12,1.31-3.24-3.01,0-5.91-.06-8.8.03-1.17.03-1.96-.3-2.7-1.22-1.58-1.99-3.55-3.53-5.81-4.71-.75-.39-1.53-.71-2.29-1.06.95,1.43,1.6,2.87,1.61,4.6h-2.26c-.34-2.95-2.39-4.44-4.75-5.66h-5.07c1.65,1.56,2.79,3.31,2.82,5.67ZM36.39,48.84c.06-.06.11-.13.17-.19-.25-.32-.48-.9-.75-.92-1.31-.1-2.62-.04-3.94-.04-.05.07-.1.13-.16.2.31.32.6.88.94.91,1.24.11,2.49.04,3.73.04ZM37.16,58.07c-.4-.46-.67-1.04-.98-1.07-1.2-.11-2.41-.05-3.78-.05,1.44,1.24,2.99,1.21,4.76,1.12Z"/>
        <path class="cls-1" d="M25.4,38.5c-.92-.26-1.81-.31-2.46-.74-1.34-.89-2.66-1.86-3.77-3.01-1.23-1.27-1-3.32.26-4.58,1.27-1.27,3.2-1.4,4.61-.3q1.36,1.05,2.66.02c1.41-1.12,3.41-.98,4.67.31,1.25,1.29,1.41,3.39.17,4.66-1.02,1.04-2.19,1.99-3.42,2.76-.8.5-1.84.62-2.72.89ZM25.37,36.21c.75-.31,1.48-.51,2.09-.9.76-.49,1.43-1.13,2.12-1.74.57-.5.63-1.21.17-1.72-.48-.54-1.15-.52-1.79,0-.43.34-.87.72-1.37.9-1.42.53-2.68.17-3.77-.88-.59-.57-1.3-.56-1.78-.02-.48.53-.41,1.24.21,1.77.65.57,1.29,1.18,2.01,1.64.63.4,1.37.63,2.12.96Z"/>
        <path class="cls-1" d="M50.73,31.49c-.21.79-.23,1.69-.66,2.33-.91,1.38-1.9,2.74-3.09,3.88-1.26,1.22-3.34.95-4.58-.32-1.22-1.25-1.34-3.19-.28-4.56.1-.13.22-.26.33-.38.65-.72.65-1.23,0-1.95-1.45-1.61-1.39-3.8.16-5.15,1.54-1.34,3.71-1.11,5.12.56.55.64,1.09,1.29,1.62,1.95.84,1.06,1.27,2.26,1.38,3.65ZM48.41,31.57c-.18-.63-.2-1.22-.48-1.62-.69-1.01-1.47-1.96-2.28-2.88-.4-.46-1.12-.37-1.56.06-.46.45-.48,1.1-.06,1.63,1.68,2.09,1.68,3.34.02,5.36-.45.55-.42,1.22.07,1.68.49.45,1.2.44,1.67-.09.67-.76,1.35-1.51,1.91-2.35.36-.54.49-1.22.71-1.79Z"/>
        <path class="cls-1" d="M64.75,23.36c0,1.7.06,3.31-.02,4.92-.08,1.75-1.59,3.11-3.36,3.16-.89.03-1.79-.04-2.67.03-.36.03-.79.21-1.04.47-.77.8-.96,1.85-1.05,2.95h-2.27c-.02-1.78.47-3.37,1.72-4.64.45-.46.62-.9.59-1.52-.04-.67-.03-1.35,0-2.02.06-1.74,1.39-3.24,3.11-3.33,1.63-.09,3.27-.02,4.98-.02ZM62.45,25.67c-.84,0-1.58-.02-2.32,0-.6.02-1.05.35-1.11.94-.08.82-.02,1.66-.02,2.53.82,0,1.56.02,2.3,0,.68-.03,1.12-.46,1.14-1.15.03-.74,0-1.48,0-2.31Z"/>
        <path class="cls-1" d="M35.83,10.6c1.63,0,3.17-.03,4.72,0,1.83.04,3.28,1.5,3.36,3.33.01.26.03.53,0,.8-.11,1.27.05,2.37,1.05,3.39,1.02,1.04,1.26,2.51,1.27,4.02h-2.08c-.37-.95-.68-1.87-1.09-2.75-.23-.5-.68-.74-1.3-.69-.84.06-1.69.03-2.53.01-1.73-.04-3.23-1.29-3.36-2.99-.13-1.67-.03-3.36-.03-5.11ZM38.12,12.92c0,.83,0,1.55,0,2.27,0,.6.31,1.08.89,1.15.84.09,1.7.02,2.58.02,0-.8.02-1.52,0-2.24-.02-.7-.43-1.16-1.1-1.19-.76-.04-1.53,0-2.37,0Z"/>
        <path class="cls-1" d="M34.63,22.17c0,1.92-1.56,3.49-3.49,3.49-1.88,0-3.45-1.57-3.46-3.45,0-1.93,1.57-3.5,3.49-3.49,1.89,0,3.45,1.56,3.46,3.45ZM32.32,22.22c.02-.62-.48-1.16-1.1-1.18-.65-.03-1.2.51-1.2,1.16,0,.62.52,1.14,1.14,1.15.62,0,1.15-.5,1.17-1.12Z"/>
        <path class="cls-1" d="M64.77,41.88c-1.92,0-3.48-1.57-3.48-3.5,0-1.88,1.58-3.45,3.47-3.44,1.93,0,3.49,1.58,3.48,3.5-.01,1.89-1.57,3.44-3.47,3.44ZM64.75,39.56c.62,0,1.15-.5,1.16-1.12.02-.65-.53-1.2-1.18-1.18-.62.01-1.13.54-1.13,1.16,0,.62.52,1.14,1.14,1.15Z"/>
        <path class="cls-1" d="M50.91,18.74h2.23v2.23h-2.23v-2.23Z"/>
        <path class="cls-1" d="M61.33,61.54v-2.22h2.23v2.22h-2.23Z"/>
        <path class="cls-1" d="M47.42,62.7v-2.22h2.23v2.22h-2.23Z"/>
        <path class="cls-1" d="M22.87,50.11h-2.24v-2.25h2.24v2.25Z"/>
      </g>
    </g>
  </g>
</svg>