<?xml version="1.0" encoding="UTF-8"?>
<svg id="Capa_2" data-name="Capa 2" xmlns="http://www.w3.org/2000/svg" viewBox="0 0 91.85 91.85">
  <defs>
    <style>
      .cls-1 {
        fill: #fff;
      }

      .cls-2 {
        fill: #396569;
        stroke: #fff;
        stroke-miterlimit: 10;
        stroke-width: 3px;
      }
    </style>
  </defs>
  <g id="Grids_Guides" data-name="Grids + Guides">
    <g>
      <circle class="cls-2" cx="45.93" cy="45.93" r="44.43"/>
      <g>
        <path class="cls-1" d="M51.03,25.87h14.86c7.74,0,13.91,8.61,13.4,15.95-.06.85-.96,3.94-.92,4.17.02.14.91.31.93,1.3s-.72,3.36-1.05,4.43c-.73,2.35-1.88,4.94-3.18,7.03-.64,1.02-1.42,2.83-2.88,2.22-1.7-.72.8-3.59,1.3-4.52,1.36-2.52,2.35-5.19,3.07-7.96H17.85c1.94,8.32,7.42,15.73,14.95,19.79,1.27.69,3.82,1.98,5.19,2.1,5.95.54,12.73-.41,18.77-.02,2.72-.82,5.17-2.26,7.58-3.73,1.59-.42,2.31,1.15,1,2.28-1.49,1.29-4.23,2.43-6.08,3.13-.19.22.1,4.86-.03,5.71-.08.48-.49,1.1-1,1.19l-22.2-.03c-.35-.21-.78-.57-.85-.97-.17-.87.17-5.67-.03-5.9-9.38-3.44-17.03-12.17-19.44-21.86-.31-1.25-1.34-3.92.6-4.22,1.08-.17,6.9.2,7.19-.01-1.36-3.74,4.03-8.36,7.28-5.73,1.81,1.47,1.09,4.03.01,5.73h5.01c1.39-1.39,2.83-3.08,3.72-4.85.94-1.88,1.18-4.51,3.8-4.95.68-.11,1.53.09,2.11-.08s.93-1.19,2.03-.49c1.01.65.15,1.68.17,2.08,0,.09.5.78.62,1.15.8,2.55-.97,5.12-2.32,7.15h17.05c1.9-1.85,1.46-5.19-.87-6.42-1.4-.74-1.97-.34-3.32-.51-7.27-.93-11.11-7.03-10.29-14.11.39-3.32,3.18-5,6.27-5.21,6.5-.46,13.51.35,20.06,0,1.6-.06,2.71,1.21,1.32,2.42l-22.25.18c-1.76.33-3.07,1.77-2.87,3.6ZM51.03,28.42c.16,3.9,3.89,7.7,7.75,8.02,1.67.14,2.09.13,2.73-1.46.9-2.22.54-4.93-1.27-6.56h-9.21ZM66.07,28.42c-.84-.09-1.79.06-2.64,0,1.61,2.81,1.32,6.05-.19,8.83.42.31.9.57,1.29.92,1.05.95.67,1.44,2.42,1.14,2.54-.44,4.94-2.65,5.66-5.1.63-2.16.54-2.53-1.27-3.75-1.31-.89-3.69-1.87-5.25-2.04ZM66.16,45.93h9.39c1.79-3.52,1.57-7.9-.36-11.31-1.27,3.86-4.54,6.85-8.66,7.3.56,1.34-.12,2.69-.36,4.01ZM39.36,45.93h3.19c.42,0,5.06-5.85,2.63-7.19-.54-.3-1.24-.28-1.76.04-.83.5-1.6,3.79-2.39,4.72l-1.67,2.43ZM25.9,45.35c1.49,1.08,4.52-2.2,3.18-3.27-1.7-.55-3.65,1.55-3.18,3.27ZM56.68,72.91h-18.96v3.46h18.96v-3.46Z"/>
        <path class="cls-1" d="M18.53,19.15c.53-.11.95.04,1.33.42,3.26,3.85,8.11,7.35,11.21,11.22,1.43,1.78.08,2.68-1.5,3.61-7.37,4.39-16.32-2.38-14.15-10.68.31-1.17,1.84-4.3,3.11-4.56ZM22.04,25.69c.07-.28-.07-.3-.18-.46-.14-.2-2.93-3.14-3.1-3.01-.69,1.49-1.32,2.86-1.1,4.56l4.37-1.09ZM22.77,28.06l-4.38,1.09c.41,1.62,1.88,2.6,3.19,3.46l1.18-4.56ZM24.05,33.16c1.61.12,3.27-.15,4.55-1.18l-3.19-3.19-1.37,4.37Z"/>
        <path class="cls-1" d="M40.4,20.98c1.2-.27,2.28.82,2.97,1.7,2.01,2.55,2.01,6.37,0,8.93-1.61,2.05-2.88,2.41-4.73.36-1.66-1.84-2.21-4.47-1.56-6.84.36-1.32,1.91-3.83,3.32-4.15ZM40.91,23.68c-2.14,1.77-2.08,5.15,0,6.92,1.94-1.99,1.98-4.94,0-6.92Z"/>
        <path class="cls-1" d="M33.67,14.8c1.05-.13,3.21-.21,3.61,1.03,1.2,3.81-2.09,8.4-6.02,8.77-2.43.23-3.76.09-3.76-2.65,0-3.43,2.74-6.72,6.18-7.15ZM34.99,17.3c-2.83-.27-5.11,2.16-4.92,4.92,2.8-.06,4.93-2.07,4.92-4.92Z"/>
        <circle class="cls-1" cx="34.62" cy="35.99" r="1.26"/>
        <circle class="cls-1" cx="69.17" cy="64.17" r="1.25"/>
        <circle class="cls-1" cx="54.2" cy="42.19" r="1.24"/>
        <circle class="cls-1" cx="56.17" cy="31.96" r="1.24"/>
      </g>
    </g>
  </g>
</svg>