<?xml version="1.0" encoding="UTF-8"?>
<svg id="Capa_2" data-name="Capa 2" xmlns="http://www.w3.org/2000/svg" viewBox="0 0 91.85 91.85">
  <defs>
    <style>
      .cls-1 {
        fill: #fff;
      }

      .cls-2 {
        fill: #396569;
        stroke: #fff;
        stroke-miterlimit: 10;
        stroke-width: 3px;
      }
    </style>
  </defs>
  <g id="Grids_Guides" data-name="Grids + Guides">
    <g>
      <circle class="cls-2" cx="45.93" cy="45.93" r="44.43"/>
      <path class="cls-1" d="M70.67,70.47c-1.31-.12-2.79-.7-4.08-.96l.64,2.08c-2.18-.14-4.2-.73-6.07-1.85-.48-.29-1.96-1.54-2.3-1.49-.2.03-1.11.6-1.52.74-1.41.5-2.93.82-4.42.51-4.13,7.41-15.41,5.52-16.85-2.87-.45-.22-2.3-1.28-2.61-1.09-.05.03-.47.69-.75.93-2.38,2.04-4.95,3.06-8.08,3.37l.64-2.24c-2.38.93-4.98,1.22-7.53,1.12-.15-2.53.63-5.11,2.56-6.81.06-.35-.07-.18-.22-.25-.41-.18-1.91-.42-1.84-.85.02-.12,1.24-1.72,1.43-1.94,1.19-1.35,2.5-2.06,4.16-2.73l-.89-1.04c1.11-1.54,2.17-2.97,3.73-4.08-.49-.34-.85-2.34-.95-2.46-.06-.07-1.3-.42-1.69-.64-2.84-1.62-3.5-5.69-1.41-8.2.29-.34,1.38-1.15,1.45-1.28.19-.39.03-1.13.12-1.64.28-1.61,1.19-2.82,2.52-3.73-2.17-2.22-3.62-5.31-3.6-8.41l2,.64c-.75-2.48-1.11-4.93-.96-7.53,2.52-.18,5.08.72,6.81,2.56l.72-2.08c.18-.02.31,0,.48.08.51.25,2.15,1.62,2.56,2.08.8.89,1.57,2.25,1.77,3.44.24.22.81-.72,1.07-.78.8-.2,4.5,3.57,4.78,4.63,1.18-.36.75-.95.89-1.82,1.04-6.53,7.78-10.29,13.7-6.85.42.24,1.52,1.23,1.76,1.27s1.68-.53,2.22-.6c5.87-.77,11,3.85,10.47,9.83-.07.76-.79,2.55-.77,2.91.01.22,1.01,1.79,1.19,2.32,2.17,6.4-3.05,12.94-9.74,12l-.56,1.02c.6,1.28.82,2.7.78,4.1,3.14.41,4.97,2.69,6.71,5.06l-.95,1.2c1.4.24,2.95,1.23,3.93,2.24.33.35,1.4,1.7,1.6,2.09.08.16.11.29.08.48l-2.08.72c1.85,1.74,2.74,4.27,2.56,6.81-1.12-.07-2.34.1-3.44,0ZM58.58,23.22c-3.55-6.08-12.99-4.03-13.45,3.04.85-.29,2.35-.14,3.09-.35.16-.05,1.1-.91,1.57-1.15,1.04-.51,2.1-.71,3.26-.58.49.05.97.38,1.43.32.37-.05.74-.51,1.1-.67.93-.4,1.97-.68,2.99-.61ZM35.03,28.02v-2.8c0-.34-.53-1.79-.71-2.17-.15-.29-1.29-1.92-1.45-1.91-.42.13-.98,3.3-1.36,3.04-1.23-2.14-2.96-4.26-5.61-4.48.13,1.92.5,3.81,1.2,5.6.16.41,1.5,2.89,1.36,3.05l-2.82-.95c-.24-.05-.26-.02-.22.23.16.98,2.11,4.09,2.96,4.57.52.3,1.43.11,2.07.17.38.04.83.3,1.16.3.46,0,1.12-.66,1.66-.87,1.27-.5,2.48-.5,3.77-.09.71.23,1.3.73,1.99.97-.23-1,1.64-2.96,1.72-3.47.17-1.04-2.04-3.34-2.92-3.89l-2.8,2.72ZM69.31,30.91c1.5-5.89-3.59-10.88-9.45-9.13.48.57.69,1.71,1.05,2.23.4.59,1.25.94,1.8,1.88.31.53.62,1.82.7,1.94.14.19,3.72,1.7,4.3,2.03.24.14,1.52,1.13,1.6,1.04ZM61.62,29.3c.5-3.08-2.82-5.35-5.44-3.61.6,1.34,1.32.89,2.41,1.11,1.37.28,2.25,1.45,3.03,2.49ZM55.05,27.38c-2-2.82-6.45-1.13-6.41,2.25,1.56-.17,2.83.48,4.39.17.42-.96,1.02-2,2.02-2.41ZM47.04,27.86c-3.53.14-6.85,3.72-6.55,7.27.01.15.12.8.17.87.07.09,1.59.6,2.04.93,1.24.89,1.98,2.24,2.29,3.72,1.61.38,2.95,1.19,4.29,2.12-.02-.36-.3-.56-.44-.92-.12-.31-.33-1.4-.38-1.46-.06-.06-1.21-.39-1.58-.59-3.7-1.98-3.6-7.41-.08-9.53l.24-2.4ZM56.77,28.54c-.6.1-2.25,1.18-1.81,1.88.04.06.97.82,1.06.87.31.18.72.21,1.06.38.81.4,1.57,1.03,2.62.92,1.16-2.17-.48-4.47-2.93-4.06ZM64.35,36.19c2.48-1.73,1.89-5.47-.96-6.41-.24,1.47-1.21,2.48-2.08,3.61,1.18.71,2.54,1.42,3.04,2.8ZM48.97,31.55c-2.97.29-4.04,4.12-1.93,6.17.27.26,1.23,1.02,1.49.51.84-1.68-.1-1.47-.32-2.8-.09-.53-.1-1.5-.02-2.03.1-.73.57-1.21.79-1.86ZM53.12,36.99c-.06-.52.3-1.07.31-1.53.02-.51-.32-.95-.27-1.54s.45-1.4.92-1.81c-.19-.23-.44-.34-.73-.39-4.45-.75-4.58,5.79-.24,5.27ZM62.74,45c7.01.48,10.49-8.41,5.04-12.81-.06,1.7-.12,3.02-1.2,4.4-.26.34-1.54,1.37-1.57,1.47-.19.57-.02,1.61-.34,2.54-.35,1-1.12,1.47-1.41,2.12-.31.7-.08,1.6-.52,2.28ZM38.87,37.47c.53-3.11-2.84-5.35-5.43-3.6.62,1.31,1.29.79,2.42,1.09.92.24,1.67.86,2.29,1.56.27.31.41.76.72.96ZM56.83,34.15c0-.5-.4-.9-.9-.9s-.9.4-.9.9.4.9.9.9.9-.4.9-.9ZM32.31,35.55c.24-.34-1.18-1.1-1.44-1.19-2.51-.89-4.87.84-4.96,3.44,1.56-.15,2.91.45,4.47.14.25-.99,1.03-1.99,1.94-2.39ZM59.8,38.7c1.27-1.38.68-3.98-1.22-4.27-.05,1.73-1.93,2.88-3.52,2.24-.24,2.59,3,3.92,4.75,2.03ZM59.22,41.16c1.06,1.56,2.68.72,3.47-.62.82-1.4.64-2.93-.34-4.19.06,2.09-1.06,4.17-3.12,4.81ZM33.87,36.71c-.58.12-2.02,1.29-1.65,1.88.04.06.97.82,1.06.87.26.15,1.67.87,1.92.97.18.07,1.64.41,1.76.34.17-.1.28-.46.31-.66.34-2.2-1.14-3.86-3.4-3.4ZM41.6,44.36c2.52-1.72,1.93-5.52-.96-6.41-.18,1.47-1.25,2.48-2.08,3.61,1.21.68,2.53,1.42,3.04,2.8ZM56.98,41.32c-1.58-.17-2.62-1.29-3.46-2.54-.97.31-1.97.03-2.88-.35-.62,0-.43,1.81-.32,2.25s.9,1.61,1.32,1.73c.35.1,1.2-.16,1.73-.14,1.53.04,2.67,1.05,3.6-.95ZM26.38,39.56c-3.79.65-4.42,5.73-.73,7.05.08,0,.54-1.25.54-1.4,0-.17-.65-1.26-.73-1.77-.23-1.45.11-2.7.92-3.88ZM30.55,45.16c.36-1.66-.65-3.65.8-4.89-1.01-.9-2.72-.54-3.52.48-1.66,2.11.13,4.87,2.72,4.41ZM34.1,42.3c0-.5-.41-.91-.91-.91s-.91.41-.91.91.41.91.91.91.91-.41.91-.91ZM32.31,44.84c-.19,2.45,2.67,3.84,4.54,2.22,1.54-1.33,1-4.18-1.02-4.46-.05,1.73-1.93,2.88-3.52,2.24ZM49.45,45.96c-.85-1.69-2.68-3.05-4.55-3.37-.23.76-.5,1.44-.99,2.08-.62.82-1.83,1.2-1.67,2.26.9-.32,2.46.38,3.12.32.29-.03,1.39-.87,2.01-1.04s1.42-.24,2.08-.24ZM61.14,43.72c-1.11.12-1.97-.08-2.83-.78l-.69.54c1.08.59,1.96,1.44,2.8,2.32.2,0,.93-1.87.72-2.08ZM60.18,53.65c1.62-5.87-3.62-10.94-9.45-9.13.59.56.75,1.74,1.11,2.29.15.22.99.79,1.29,1.15.63.74,1.1,1.64,1.14,2.62,2.04.84,4.07,1.82,5.9,3.07ZM35.99,50.45c3.41.59,5.88-3.19,3.6-5.93-.04,1.43-.38,2.82-1.47,3.82-.83.76-2.2.77-2.14,2.11ZM34.23,49.49c-1.6-.21-2.61-1.26-3.46-2.54-1.06.34-2.16-.03-3.11-.51-1.33,4.32,4.25,6.88,6.57,3.05ZM52.49,52.05c.63-3.04-2.9-5.39-5.44-3.6.62,1,.76.71,1.64.92,1.11.27,1.98.52,2.84,1.32l.96,1.36ZM43.98,52.51c.18-.5.43-.98.76-1.4.23-.29,1.23-1.03,1.19-1.21-.69-.69-1.65-1.18-2.64-1.21-1.7-.06-1.39.6-2.24,1.61-.58.69-1.53,1.05-1.53,2,1.53.03,2.95.49,4.46.22ZM50.19,51.95c-1.4-1.31-3.91-.79-4.44,1.13.48.18.77.75,1.15.97.35.2,1.55.8,1.92.96.45.2,1.16.19,1.66.39.94-.9.59-2.63-.28-3.44ZM37.51,65.03c.72.09,1.58-.06,2.32,0l-.51-1.89c-4.07-.93-5.78-5.97-2.86-9.08.68-.72,1.56-.7,1.29-1.84-.34-.06-.68.11-1.01.1-1.63-.05-1.76-.94-3.23.38-4.3,3.85-1.63,11.67,4.01,12.34ZM27.98,57.82h-3.12c-.27,0-1.75.62-2.09.8-.64.34-1.19.84-1.67,1.37l3.04,1.12c-1.96,1.59-4.16,2.92-4.48,5.69,3.08.11,5.99-1.15,8.65-2.56l-.88,3.21c.97-.14,4.63-2.35,4.7-3.15-2.76-3.23-3.35-7.26-1.42-11.1l-2.62-.77c-.72.31-2.96,2.02-2.59,2.84.22.5,2.27,1.72,2.49,2.57ZM52.34,56.37c1.4.26,2.1,1.57,3.11,2.4,2.33-1.77,1.56-5.42-1.19-6.24.34.93-2.25,3.46-1.92,3.84ZM63.86,59.58c.31-.64,2.68-2.37,2.54-2.92-.29-1.18-3.2-2.99-4.46-3,.07.47-.49,1.24-.4,1.62.06.27.73,1.19.91,1.64,1.49,3.58.7,7.35-1.95,10.12,1.18.9,2.42,1.86,3.92,2.16l-.88-3.04c2.75,1.28,5.55,2.5,8.65,2.56-.24-2.62-2.35-4.39-4.48-5.61-.17-.25,2.46-.99,2.69-1.08.16-.06.48.03.35-.28-.1-.26-1.58-1.28-1.91-1.45-.38-.19-1.83-.71-2.17-.71h-2.8ZM39.84,54.29c-3.7.52-4.07,5.66-.57,6.89.07,0,.55-1.25.55-1.37,0-.39-.65-1.22-.75-1.8-.25-1.44.15-2.47.76-3.73ZM44.16,59.74c.35-1.69-.6-3.56.8-4.89-1.46-1.23-3.74-.09-4.09,1.67-.4,1.99,1.32,3.57,3.29,3.21ZM58.58,54.77v2.32c0,.28-.68,1.7-.89,1.99-.29.41-1.77,1.6-1.81,1.72-.18.51.02,1.5-.23,2.33-.34,1.13-1.22,1.64-1.47,2.21-.08.18-.43,2.12-.41,2.32,7.02.62,10.31-8.65,4.81-12.89ZM47.72,56.88c0-.5-.4-.9-.9-.9s-.9.4-.9.9.4.9.9.9.9-.4.9-.9ZM45.92,59.42c.84,6.14,8.95,1.23,3.76-2.4-.44,1.74-1.87,3.08-3.76,2.4ZM53.07,64.01c1.25-1.24,1.43-3.62.14-4.91-.02,1.43-.36,2.84-1.44,3.84-.81.75-2.18.74-2.16,2,1.2.3,2.6-.07,3.47-.94ZM47.85,64.07c-1.5-.25-2.59-1.22-3.35-2.48-1.12.22-2.21-.04-3.21-.56-1.32,4.29,4.27,6.89,6.57,3.04ZM52.01,66.63c-.43.11-1.09.32-1.52.32-.6,0-1.84-.51-2.21-.45-.34.05-1.19.77-1.77.97-1.14.38-2.32.39-3.47.04-.54-.16-1.6-.93-1.84-.96s-2.4.34-2.89.41c-.22.03-.28-.11-.24.23.15,1.26,1.72,3.14,2.73,3.84,4.2,2.93,10.3.7,11.2-4.39Z"/>
    </g>
  </g>
</svg>