<?xml version="1.0" encoding="UTF-8"?>
<svg id="Capa_2" data-name="Capa 2" xmlns="http://www.w3.org/2000/svg" viewBox="0 0 91.85 91.85">
  <defs>
    <style>
      .cls-1 {
        fill: #fff;
      }

      .cls-2 {
        fill: #396569;
        stroke: #fff;
        stroke-miterlimit: 10;
        stroke-width: 3px;
      }
    </style>
  </defs>
  <g id="Grids_Guides" data-name="Grids + Guides">
    <g>
      <circle class="cls-2" cx="45.93" cy="45.93" r="44.43"/>
      <g>
        <path class="cls-1" d="M18.73,59.34v8.48c0,.32.76,1.15,1.17,1.18h53.4c.41-.03,1.17-.86,1.17-1.18v-8.48c-1.65.04-2.8,1.53-4.33,1.97-.65.19-2.62.54-2.82-.28-.46-1.79,1.87-.64,3.02-2.04,3.36-4.08,1.56-10.46-.41-14.76l-1.17.51c1.79,4.3,1.51,8.32-3.03,10.48-10.49,5-14.88-6.02-20.15-12.6-.1-.98.68-1.36,1.47-.86,4.92,5.63,8.44,16.28,17.96,11.9,3.71-1.71,3.59-5.1,2.05-8.41-3.43.66-7.49-.79-9.71-3.47-1.06-1.27-1.55-3.1.46-3.72.92-.28,4.4-1,5.33-1.06.68-.04,2.01.39,2.38.22.35-.16,1.11-1.78,1.55-2.32.77-.94,1.96-1.82,2.86-2.68.6-.57.73-1.28,1.8-1.4,2.9-.33,2.83,4.91,2.5,6.72-.41,2.3-1.44,3.88-2.97,5.59,2.09,4.5,3.82,9.89,1.68,14.69,1.2-.27,2.79-.86,3.18.77-.23,2.96.36,6.49,0,9.37-.15,1.2-1.01,2.15-2.09,2.61-17.92.42-35.93.05-53.89.18-1.62-.06-2.94-1.35-3.1-2.95-.3-2.96.16-6.48.07-9.49.98-1.78,3.47-.28,4.79.34-3.52-5.05-3.53-11.48-.34-16.71,2.18-3.56,5.54-6.13,9.58-7.23-.1-3.92-.65-8.4-3.31-11.46-3.35,1.03-7.04-1.19-7.28-4.8-.05-.69-.09-2.27.93-2.26,1.31,0,.74,1.26.75,1.91.03,1.46,1.16,3.07,2.57,3.49,1.84.54,3.07-.61,4.89-.36.99.14,1.64.87,2.5,1.19,3.44,1.27,4.49-1.61,7.21-1.17.46.07.91.38,1.4.45,4.8.65,6.1-5.54,2.2-7.07-1.99-.78-3.05.47-5.06.19-1.29-.18-2.38-1.51-4.04-1.51-2.14,0-3.25,1.95-5.5,1.65-.8-.11-1.54-.64-2.39-.64-.8,0-2.59,1.1-2.91.06-.49-1.65,2.49-1.85,3.58-1.73.77.08,1.76.7,2.48.64s1.43-.82,2.09-1.1c1.5-.63,2.99-.69,4.54-.25,1.24.35,2.02,1.35,3.29,1.21,1.83-.2,2.19-.92,4.39-.16,5.7,1.96,4.07,10.59-1.85,10.58-.8,0-1.53-.63-2.19,0-2.26,2.14-2.93,8.11-3.03,11.09,2.5.84,5.18,1.79,7.15,3.6.54.5,1.5,1.3.57,1.92-.81.53-2.31-1.11-3.06-1.6-5.91-3.82-12.2-2.9-16.73,2.45-4.65,5.5-4.81,14.44,1.35,18.81,2.88-.79,4.04-2.66,7.36-2.33,2.38.24,3.68,2.12,5.73,2.33,3.72.39,4.96-3.47,9.82-2.09,1.87.53,2.74,2.01,4.95,2.1,3.06.12,4.24-2.65,8.06-2.35,1.31.1,4.83,1.25,2.53,2.68-.62-.2-1.13-.57-1.77-.75-3.6-1.03-4.66,1.81-7.81,2.1-3.95.36-4.61-2.04-7.4-2.33-3.62-.37-4.8,3.37-9.67,2.11-1.4-.36-2.41-1.48-3.66-1.88-4.18-1.32-5.87,3.57-11.13,1.72-1.41-.5-2.44-1.78-3.98-1.81ZM37.2,23.58c-1.53.98-3.65,1.11-5.36.58-.62-.19-1.08-.61-1.69-.75,1.36,2.13,2.15,4.83,2.5,7.32.08.59.19,3.61.38,3.73l1.66.02c.09-3.78.84-7.52,2.52-10.91ZM72.29,32.64c-.36-.35-1.35,1.06-1.65,1.33-1.03.93-1.98,1.55-2.75,2.75-.28.44-.34,1-.73,1.45-1.21,1.42-3.02.51-4.67.7-1.35.15-2.85.91-4.3.82-.31.3,1.53,2,1.86,2.25,3.03,2.33,7.84,2.39,10.48-.57,2.24-2.51,2.5-5.54,1.76-8.73Z"/>
        <path class="cls-1" d="M32.96,45.03c-.48.47-2.27-.27-3.22-.12s-1.75,1.42-2.54.84c-1.64-1.19,2.11-2.69,3.21-2.7.85,0,3.71.83,2.55,1.98Z"/>
      </g>
    </g>
  </g>
</svg>