<?xml version="1.0" encoding="UTF-8"?>
<svg id="Capa_2" data-name="Capa 2" xmlns="http://www.w3.org/2000/svg" viewBox="0 0 91.85 91.85">
  <defs>
    <style>
      .cls-1 {
        fill: #fff;
      }

      .cls-2 {
        fill: #396569;
        stroke: #fff;
        stroke-miterlimit: 10;
        stroke-width: 3px;
      }
    </style>
  </defs>
  <g id="Grids_Guides" data-name="Grids + Guides">
    <g>
      <circle class="cls-2" cx="45.93" cy="45.93" r="44.43"/>
      <g>
        <path class="cls-1" d="M34.79,65.69c-.76,0-1.52-.01-2.28,0-1.77.03-3.35.08-5.16-.25-.33-.06-.69-.36-.95-.39-.93-.09-1.89,1.14-2.38-1.01-2.63-11.59,7.71-25.02,19.46-25.89,2.97-.22,4.31.56,6.51,2.29.18.14.21.38.42.09.59-.83-.4-2.57-.84-3.38-1.56-2.87-3.77-4.99-5.18-8.16-1.28-2.87-3.15-8.53-1.29-11.32,3.11-4.68,11.57-3.32,12.47,2.51,4.41,5.33,9.78,10.27,14.1,15.62,2.18,2.69-.6,2.67-2.71,2.54-2.3-.13-5.26-.96-7.34-1.94-.98-.47-1.86-1.18-2.87-1.61,3.8,9.25,1.2,19.98-6.77,26.08-1.07.82-2.29,1.4-3.36,2.21v2.96c1.17.07,6.41-.56,7.05.04.89.84-.24,1.63-.1,2.36.11.56.67.62.86,1.01.64,1.34-.79,1.52-.9,2.25s.7.92.44,1.77c-.43,1.4-3.01.71-4.07.67-3.64-.14-7.35-.15-10.93-.9-1.94-.4-5.81-1.26-4.96-4.01.11-.36.77-.86.77-.92v-2.62ZM49.46,26.03c-.35-.21-1.59.18-1.8-1-.26-1.46,1.28-1.25,2.04-1.44,1.31-.32,2.95-.98,3.26-2.48,1.01-4.82-8.61-5.59-8.37-.1.14,3.15,1.81,7.21,3.47,9.87,1.69,2.69,5.4,6.43,4.76,9.85-.13.7-1.12,1.8-1.13,2.06-.02.39.58,1.59.65,2.22.78,6.59-7.25,12.38-12.78,14.2-2.62.86-5.29.82-7.69,2.27-.77.47-1.61,1.24-2.31,1.83,2.78.28,5.9.03,8.67-.36,14.19-2.02,21.71-14.74,16.01-28.12-.99-2.32-2.37-4.22-3.6-6.36-.22-.39-1.06-2.38-1.18-2.45ZM66.54,35.96l-11.74-13.17c-.78,1.06-1.66,1.99-2.88,2.53,2.47,5.89,8.33,9.91,14.62,10.64ZM26.18,58.17c-.13,1.38.09,2.91,0,4.31,2.18-.93,3.79-2.81,5.96-3.75,1.84-.79,3.79-.89,5.69-1.4,2.62-.71,5.44-2.1,7.43-3.97-1.66.56-3.89,1.9-4.64-.5-1.17.93-3.58,2.17-4.14,0-1.45.75-3.34,1.74-4.13-.33-1.08.88-2.79,1.63-3.67.12l-.13-1.81c-1.02,2.26-2.14,4.84-2.37,7.34ZM44.25,64l-2.29.66c-.33,1.86.5,3.9-.92,5.41,3.19,1.3,6.69,1.71,10.12,1.85-.13-.65.55-1.39.51-1.92-.03-.44-.57-1.2-.52-1.77-.31-.26-3.88.21-4.63.16-2.38-.15-2.37-2.54-2.27-4.4ZM39.52,65.18l-2.36.17v3.29c0,.31-.79,1.28-.68,1.43l2.19.68c.02-.51-.08-1.03.08-1.53.11-.36.77-.86.77-.92v-3.12Z"/>
        <circle class="cls-1" cx="49.9" cy="20.18" r="1.15"/>
      </g>
    </g>
  </g>
</svg>