<?xml version="1.0" encoding="UTF-8"?>
<svg id="Capa_2" data-name="Capa 2" xmlns="http://www.w3.org/2000/svg" viewBox="0 0 91.85 91.85">
  <defs>
    <style>
      .cls-1 {
        fill: #fff;
      }

      .cls-2 {
        fill: #396569;
        stroke: #fff;
        stroke-miterlimit: 10;
        stroke-width: 3px;
      }
    </style>
  </defs>
  <g id="Grids_Guides" data-name="Grids + Guides">
    <g>
      <circle class="cls-2" cx="45.93" cy="45.93" r="44.43"/>
      <g>
        <path class="cls-1" d="M24.69,48.49h2.52c-.43-1.6-.53-4.1-.29-5.75s1.45-2.68,3.06-2.82c2.28-.2,8.06-.28,10.24.02.81.11,2.62,1.26,2.62,2.09v6.05c0,.05-.23.24-.17.42h3.7c.06-.18-.17-.37-.17-.42v-6.05c0-.82,1.81-1.97,2.62-2.09,2.18-.3,7.96-.23,10.24-.02,1.61.14,2.82,1.2,3.06,2.82s.13,4.15-.29,5.75h2.52v-3.61c0-.47.82-.68,1.22-.56.89.25.26,3.26.48,4.07,1.32.7,2.31,1.22,2.5,2.88.35,3.1-.23,6.87-.04,10.04-.19,1.15-1.6,2.46-2.82,2.31v3.02h6.97c.48,0,1.29.96,1.39,1.47.16.79.13,3.95-.08,4.72s-.79,1.16-1.52,1.34l-26.48-.12c-.48-.3-.26-1.53.14-1.53h26.04l.25-.25v-3.7l-.25-.25H16.87l-.25.25v3.7l.25.25h26.04c.4,0,.62,1.22.14,1.53l-26.48.12c-.73-.18-1.32-.58-1.52-1.34s-.24-3.93-.08-4.72c.1-.51.91-1.47,1.39-1.47h6.97v-3.02c-1.22.15-2.62-1.16-2.82-2.31.21-3.19-.42-7.11-.04-10.21.18-1.49,1.34-2.07,2.5-2.71l.04-10.88c.17-1.26,1.45-2.45,2.75-2.46l37.79.02c1.26.22,2.31,1.3,2.45,2.59.06.58.08,3.77-.16,4.04-.22.24-.7.3-1.01.17-1.38-.62.66-4.92-1.76-5.13H25.94c-.37-.04-1.25.64-1.25.93v10.84ZM30.02,41.64c-.64.11-1.18.37-1.29,1.06-.11.72-.14,4.18,0,4.86.07.37.41.6.67.84l10.67.1c.39.02.82-.38.96-.72.21-.54.23-4.97,0-5.46-.24-.52-1.1-.67-1.63-.72-1.98-.17-7.54-.26-9.37.05ZM49.17,41.64c-.64.11-1.18.37-1.29,1.06-.13.8-.13,3.88,0,4.68.07.42.33.76.67,1.01h11.08c.1-.04.55-.49.59-.59.18-.44.16-5.08-.04-5.5-.24-.52-1.1-.67-1.63-.72-1.98-.17-7.54-.26-9.37.05ZM22.17,50.33v4.88h44.69v-4.88H22.17ZM66.85,57.06H22.17v4.88h44.69v-4.88ZM27.71,66.63v-2.77c-.63-.52-1.72-.14-2.52-.25v3.02h2.52ZM59.63,63.61h-30.24v3.02h30.24v-3.02ZM63.83,63.61c-.8.11-1.89-.27-2.52.25v2.77h2.52v-3.02Z"/>
        <path class="cls-1" d="M30.19,15.1l28.19-.05c1.56.1,2.61,1.26,2.76,2.78.28,2.77.25,8.46,0,11.26-.17,1.97-1.14,2.94-3.11,3.11-8.75-.57-18.42.74-27.06,0-1.85-.16-2.91-1.06-3.1-2.95-.28-2.77-.25-8.46,0-11.26.13-1.48.87-2.5,2.31-2.89ZM30.52,16.78c-.68.15-.89.95-.96,1.56-.27,2.4-.23,7.98,0,10.42.07.74.22,1.49,1.09,1.6,3.36.43,7.64-.35,11.11,0,.76-.1,1.45-1.23,1.83-1.87,1.72-2.9,1.82-6.19.33-9.21-.38-.77-1.46-2.44-2.32-2.55l-11.06.04ZM51.06,16.74h-6.55c.35.95.96,1.63,1.35,2.6,1.02,2.57,1.08,5.33.21,7.95l-1.56,3.06h6.47c2.6-4.15,2.39-9.36.08-13.61ZM53.08,30.35h5.63c.36,0,.72-1.08.76-1.43.28-2.41.22-7.95,0-10.42-.04-.48-.33-1.76-.93-1.76h-5.46c.27,1.14.86,2.18,1.13,3.32.81,3.49.32,7.04-1.13,10.29Z"/>
      </g>
    </g>
  </g>
</svg>