<?xml version="1.0" encoding="UTF-8"?>
<svg id="Capa_2" data-name="Capa 2" xmlns="http://www.w3.org/2000/svg" viewBox="0 0 91.85 91.85">
  <defs>
    <style>
      .cls-1 {
        fill: #fff;
      }

      .cls-2 {
        fill: #396569;
        stroke: #fff;
        stroke-miterlimit: 10;
        stroke-width: 3px;
      }
    </style>
  </defs>
  <g id="Grids_Guides" data-name="Grids + Guides">
    <g>
      <circle class="cls-2" cx="45.93" cy="45.93" r="44.43"/>
      <path class="cls-1" d="M44.32,54.77c-2.15-.5-3.5-2.82-3.37-4.98-6.32.58-11.68-4.74-14.87-9.62,2.38-3.9,5.98-7.2,10.18-9.03.09-1.3.36-2.59.97-3.75-.88-.82-5.76-2.64-6.57-2.09-.1.07-.36.77-.57,1.03-3.8,4.76-10.74.6-8.65-4.8,1.61-4.17,7.98-3.99,9.25.3,2.97.18,5.66,1.21,8.26,2.59l.23-.07c1.84-2.29,4.11-4.25,6.68-5.71,2.75,1.33,4.98,3.57,7.08,5.76,2.57-1.36,5.29-2.37,8.23-2.56,1.18-4.06,7.14-4.53,9.04-.73,2.69,5.38-4.46,10.24-8.45,5.23-.21-.26-.47-.97-.57-1.03-.86-.59-5.39,1.32-6.42,1.87.25,1.34.91,2.57.82,3.97,4.22,1.81,7.82,5.12,10.18,9.03-3.21,4.82-8.54,10.39-14.87,9.62.11,2.14-1.23,4.5-3.37,4.98v4.17c1.63-1.39,2.97-3.08,4.67-4.4,4.78-3.69,11.1-4.6,16.84-2.82l-9.31,9.47c3.59.24,6.94,1.96,9.79,4.01-2.96,1.43-5.73,3.27-8.67,4.74-4.78,2.39-9.91,3.51-15,5.05-4.77-1.57-9.7-2.51-14.23-4.73-3.17-1.56-6.13-3.52-9.31-5.06,2.86-2.05,6.21-3.77,9.79-4.01l-9.23-9.31c-.16-.13.08-.25.2-.29,4.47-1.57,10.71-.66,14.77,1.7,2.51,1.47,4.35,3.72,6.48,5.65v-4.17ZM27.69,23.45c0-.91-.74-1.65-1.65-1.65s-1.65.74-1.65,1.65.74,1.65,1.65,1.65,1.65-.74,1.65-1.65ZM67.46,23.45c0-.91-.74-1.65-1.65-1.65s-1.65.74-1.65,1.65.74,1.65,1.65,1.65,1.65-.74,1.65-1.65ZM52.19,30.53c-.53-3.47-3.66-5.92-6.21-8.01-2.75,1.97-5.52,4.51-6.32,7.93,2.18.25,3.89,1.25,5.3,2.9.18.21.81,1.34.89,1.36.31.08.82-1.26,1.12-1.45,1.39-1.59,3.07-2.63,5.22-2.73ZM38.34,33.94c-2.89.46-5.99,3.86-8,5.81-.13.14-.18.3-.16.48.02.24,1.78,2.12,2.09,2.42,1.7,1.62,5.16,4.23,7.62,3.92,1.86-.23,1.82-1.46,2.43-2.87-1.41-1.88-1.95-4.13-.6-6.22.35-.54.88-.82,1.13-1.38-1.08-1.72-2.45-2.48-4.52-2.16ZM51.66,33.94c-1.08.18-2.11,1.27-2.67,2.16-.04.27.8.89,1.01,1.18,1.41,1.96,1.06,4.57-.49,6.33.61,1.34.46,2.54,2.18,2.9,2.56.53,6.03-2.09,7.8-3.78.4-.38,2.17-2.28,2.16-2.66,0-.25-2.63-2.85-3.05-3.21-1.78-1.53-4.5-3.35-6.95-2.93ZM47.16,41.23c.62-.64.52-1.8-.18-2.36-1.73-1.37-3.62,1.1-2.21,2.41.79.73,1.64.72,2.39-.06ZM46.08,44.02c-.37-.08-.26.05-.36.21-.84,1.3-1.86,5.24-1.29,6.66.61,1.51,2.89,1.17,3.09-.52.25-2.1-.63-4.45-1.45-6.35ZM44.32,66.33c-.06-.57.11-1.27-.04-1.81-.32-1.19-4.47-5.49-5.58-6.46-2.37-2.08-5.31-3.57-8.51-3.77-.07.28.12.32.24.48,1.15,1.49,3.88,3.94,5.38,5.22,2.69,2.3,5.74,4.16,8.51,6.34ZM61.66,54.29c-3.2.2-6.15,1.69-8.51,3.77-1.11.98-5.26,5.27-5.58,6.46-.14.54.02,1.24-.04,1.81,2.78-2.18,5.82-4.04,8.51-6.34,1.49-1.28,4.23-3.73,5.38-5.22.12-.16.31-.2.24-.48ZM44.28,70.54c-2.35-1.61-4.58-3.8-7.01-5.27-2.4-1.45-5.32-.84-7.89-.22-.08.38.05.26.21.36,1.65,1.06,4.69,2.58,6.54,3.25,2.64.95,5.51,1.51,8.18,2.33l-.04-.45ZM62.46,65.05c-2.66-.64-5.53-1.24-7.98.28-.96.6-2.15,1.52-3.08,2.22-.85.63-3.18,2.29-3.76,2.95-.16.18-.12.26-.11.49,5.06-1.33,10.29-2.72,14.73-5.58.16-.1.29.02.21-.36Z"/>
    </g>
  </g>
</svg>