<?xml version="1.0" encoding="UTF-8"?>
<svg id="Capa_2" data-name="Capa 2" xmlns="http://www.w3.org/2000/svg" viewBox="0 0 91.85 91.85">
  <defs>
    <style>
      .cls-1 {
        fill: #fff;
      }

      .cls-2 {
        fill: #396569;
        stroke: #fff;
        stroke-miterlimit: 10;
        stroke-width: 3px;
      }
    </style>
  </defs>
  <g id="Grids_Guides" data-name="Grids + Guides">
    <g>
      <circle class="cls-2" cx="45.93" cy="45.93" r="44.43"/>
      <path class="cls-1" d="M33.42,55.44c-4.25-4.81-.69-14.05,6.02-13.7-.65-5.55-5.37-10.35-11.22-8.44-1.1.36-3.02,1.55-3.66,2.51-1.48,2.22-.38,5.84,2.61,5.47,1.21-.15,2.17-2.16,3.62-.91,1.61,1.39-.75,3.19-2.04,3.69-3.74,1.44-7.48-1.35-7.94-5.16s2.18-6.47,5.38-8.24c-2.74-2.69-3.62-6.98-1.68-10.42.93-1.65,1.57-1.58,3.31-1.15,5.03,1.23,7.41,6.36,6.06,11.18,1.2.3,2.41.88,3.38,1.66.53-1.26.95-2.63,1.95-3.62,1.15-1.13,5.16-3.33,5.5-.51.2,1.64-1.88,1.64-2.86,2.39-1.44,1.1-1.75,3.08-1.47,4.79.18,1.05,1.14,2.08,1.4,3.13,2.74-1.92,6.06-2.38,9.16-1.04.67.29,1.23.76,1.9,1.03.14-1.07,1.15-2.12,1.32-3.12.29-1.71-.03-3.69-1.47-4.79-.98-.75-3.06-.75-2.86-2.39.34-2.82,4.35-.63,5.5.51,1,.98,1.42,2.36,1.95,3.62.97-.78,2.18-1.36,3.38-1.66-1.27-4.55.75-9.41,5.35-10.99,2.23-.77,3.24-.78,4.28,1.46,1.59,3.46.69,7.27-1.93,9.92,3.78,1.98,6.66,5.42,4.93,9.9-1.33,3.44-5.54,5.13-8.69,2.89-1.01-.72-2.12-2.33-.67-3.21s2.08.71,3.07.97c3.5.92,4.86-3.79,2.26-6.18-5.76-5.3-13.61-.24-14.16,6.7,6.71-.35,10.27,8.9,6.02,13.7h2.33c5.49,0,8.88,6.08,9.91,10.72.64,2.85.95,3.44-1.93,4.49-5.94,2.17-12.92,1.81-15.89-4.52-2.65,1.13-6.09,1.63-8.23-.74-.6.36-.99.87-1.65,1.18-2.09.97-4.64.42-6.68-.43-2.85,5.98-9.05,6.61-14.87,4.86-1.15-.35-3.24-.85-3.36-2.22-.19-2.27,1.85-7.28,3.2-9.16,1.46-2.03,4.55-4.17,7.13-4.17h2.33ZM26.94,22.16c-.73,2.45-.34,4.84,1.73,6.47,1.51,1.19,2.34,1.43,2.49-.82.17-2.6-1.56-5.24-4.22-5.65ZM67.6,22.16c-2.66.41-4.39,3.05-4.22,5.65.15,2.25.97,2.01,2.49.82,2.07-1.63,2.46-4.02,1.73-6.47ZM46.18,39.52c-.86.12-2.44.85-2.98,1.54-1.68,2.17,1.24,4.44,2.26,6.18l3.51.06c.61-1,2.69-3.08,2.82-4.12.38-3.05-3.19-4-5.61-3.65ZM38.04,44.94c-2.78.52-4.57,6.31-2.42,8.22,1.72,1.52,4.34-.25,6.23-.65.27-1.17.43-2.31,1.15-3.31-1.39-1.61-2.34-4.75-4.96-4.26ZM55.21,44.94c-1.26.26-2.92,3.27-3.66,4.34.76.94.85,2.11,1.14,3.23,2.02.51,5.57,2.63,6.78-.15.99-2.28.07-5.36-1.89-6.85-.74-.56-1.44-.76-2.37-.57ZM49.43,52.37c0-1.19-.97-2.16-2.16-2.16s-2.16.97-2.16,2.16.97,2.16,2.16,2.16,2.16-.97,2.16-2.16ZM45.74,57.43c-.86-.26-1.55-.74-2.22-1.32-.38-.32-.22-.73-.92-.6-.63.11-3.77,1.19-4.22,1.52-3.61,2.62,2.97,8.85,6.34,6.49,1.67-1.18.88-4.3,1.02-6.08ZM48.8,57.43c-.15,3.37-.61,7.75,4.26,6.29,3.04-.91,6.35-5.49,2.19-7.14-.73-.29-2.6-.95-3.3-1.08-.59-.11-1.12.84-1.67,1.21-.44.29-.99.5-1.47.71ZM34.17,58.61c-1.39.02-2.71-.12-4.07.22-3.72.93-5.54,5.52-6.02,8.96,4.7,1.49,10.12,1.79,12.43-3.45l-.87-1.34c-.43-.25-4.37,2.51-5.18,2.68-1.67.31-2.54-1.67-1.26-2.77l5.04-2.94-.08-1.35ZM70.46,67.79c-.48-3.44-2.3-8.03-6.02-8.96-1.36-.34-2.68-.21-4.07-.22l-.08,1.35,5.04,2.94c1.27,1.1.4,3.08-1.26,2.77-.81-.17-4.75-2.93-5.18-2.68l-.87,1.34c2.29,5.24,7.75,4.94,12.43,3.45Z"/>
    </g>
  </g>
</svg>