<?xml version="1.0" encoding="UTF-8"?>
<svg id="Capa_2" data-name="Capa 2" xmlns="http://www.w3.org/2000/svg" viewBox="0 0 91.85 91.85">
  <defs>
    <style>
      .cls-1 {
        fill: #fff;
      }

      .cls-2 {
        fill: #396569;
        stroke: #fff;
        stroke-miterlimit: 10;
        stroke-width: 3px;
      }
    </style>
  </defs>
  <g id="Grids_Guides" data-name="Grids + Guides">
    <g>
      <circle class="cls-2" cx="45.93" cy="45.93" r="44.43"/>
      <g>
        <path class="cls-1" d="M64.05,48.64h6.96c-.15-1.34-.33-2.69-.67-4.01-.22-.87-1.31-3.22-1.31-3.72,0-.93.99-1.49,1.82-.98,1.12.69,2.37,7.18,2.35,8.68,5.31.75,4.96,8.25-.43,8.31-.42,1.9-1.4,3.57-3.05,4.64.5.95,2.06,3.64,1.3,4.59-2.07,1.32-2.17-1.58-2.95-2.96-.47-.84-5.31-6.07-5.92-6.25-1.75-.52-2.35.88-2.84,2.29-2.49,7.1,3.23,10.65,7.45,15.06,1.25-.68,1.87-3.87,2.51-4.45.88-.78,2.06.02,1.87,1.19-.23,1.38-2.89,5.67-4.24,5.98-1.16.26-3.31-3.15-4.48-3.59-.52.89-2.48,3.85-3.62,3.59-.97-.22-4.92-5.26-5.52-5.11-.38,1.14-3.1,5.26-4.27,5.12s-5.34-5.33-5.74-5.33c-.61,1.14-3.05,5.86-4.61,5.27-4.93-5.14-10.46-7.94-9.84-16.04.06-.73.47-1.45.44-2.17-.02-.64-.47-1.2-.44-1.85h-7.28c-.09,0-1.48-.57-1.71-.68-4.13-1.98-5.38-7.62-2.62-11.26.64-.84,3.45-3.45,4.33-1.98s-1.26,1.99-2.04,2.74c-1.58,1.53-1.98,4.02-1.05,6.01.52,1.11,2.48,2.99,3.75,2.99h15.98v-5.33c0-2.39-3.04-4.88-5.33-5.11-1.95-.2-5.77.4-7.34-.05-.98-.28-1.19-1.91-.04-2.12.81-.15,3.85.19,4.2-.04,4.58-13.02,20.21-18.78,32.27-11.89,1.6.92,6.08,4.47,6.78,6.06.35.79-.38,1.87-1.2,1.64-.72-.2-2.39-2.48-3.15-3.17-.84-.76-2.94-2.38-3.93-2.81-1.04-.45-1.48.27-1.73,1.28-.21.85,1.21,2.27,1.69,3.11,2.18,3.86,3.43,7.86,3.66,12.32ZM57.3,30.61c-4.33-1.53-8.91-1.37-13.26,0,1.97,6.35,11.49,6.5,13.26,0ZM42.07,31.7c-.52-.38-3.96,2.19-4.55,2.7-2.33,2-4.35,4.83-5.43,7.72,2.33-.35,3.77.89,5.55,1.96.2.12.15.37.43,0,.81-3.78,2.52-7.31,4.84-10.37l-.84-2.01ZM49.7,48.64v-10.76c-1.82-.72-3.63-1.08-5.11-2.48l-.22.19c-1.5,2.03-2.76,4.28-3.52,6.71-.57,1.8-1.5,4.72-.39,6.35h9.24ZM61.65,48.64c.05-4.79-1.75-9.37-4.56-13.17-1.67.82-3.22,2.17-5.22,2.08v11.09h9.78ZM73.29,50.82h-32.94v3.91h32.94c.06,0,.87-.47.99-.59.94-1.05.32-3.03-.99-3.32ZM40.13,56.9h-8.91c.47,3.68,4.57,3.63,7.51,3.49l.34-.14,1.06-3.35ZM43.11,56.95c-.81.25-1.76,3.14-1.87,4-.78,6.68,4,9.06,7.91,13.34,3.27-3.69,3.36-8.81.22-12.61-.53-.64-4.07-4.3-4.56-4.57s-1.19-.32-1.71-.16ZM57.74,56.9h-9.57c-.09.38.16.43.32.65.73.95,1.95,1.74,2.65,2.79l5.53-.09,1.06-3.35ZM70.35,56.9h-4.57c-.09.38.16.43.32.65.24.32,2.11,2.2,2.36,2.16.84-.74,1.85-1.57,1.88-2.81ZM38.82,62.56c-1.37-.09-2.87.13-4.21-.03-1.39-.16-2.34-.92-3.61-1.28-.74,6.02,4.35,9.22,7.93,13.04,1.28-1.26,2.09-2.93,2.42-4.68-1.56-2.02-2.42-4.5-2.53-7.06ZM56.44,62.56h-3.7c1.06,2.23,1.12,4.32,1.2,6.74l5,5,1.82-2.68c-2.55-2.45-4.14-5.49-4.32-9.05Z"/>
        <path class="cls-1" d="M24.08,25.6c0,3.3-2.67,5.97-5.97,5.97s-5.97-2.67-5.97-5.97,2.67-5.97,5.97-5.97,5.97,2.67,5.97,5.97ZM21.83,25.6c0-2.06-1.67-3.73-3.73-3.73s-3.73,1.67-3.73,3.73,1.67,3.73,3.73,3.73,3.73-1.67,3.73-3.73Z"/>
        <path class="cls-1" d="M26.42,36.53c0,2.21-1.79,4-4,4s-4-1.79-4-4,1.79-4,4-4,4,1.79,4,4ZM24.16,36.51c0-.96-.78-1.73-1.73-1.73s-1.73.78-1.73,1.73.78,1.73,1.73,1.73,1.73-.78,1.73-1.73Z"/>
        <path class="cls-1" d="M79.41,26.35c0,2.21-1.79,4-4,4s-4-1.79-4-4,1.79-4,4-4,4,1.79,4,4ZM77.16,26.33c0-.96-.78-1.75-1.75-1.75s-1.75.78-1.75,1.75.78,1.75,1.75,1.75,1.75-.78,1.75-1.75Z"/>
        <path class="cls-1" d="M25.61,46.09c.43-.43,1.64-.42,1.86.32.32,1.08.38,4.26-1.55,3.51-.81-.28-.76-3.38-.31-3.83Z"/>
        <path class="cls-1" d="M20.83,49.68c-.49-.49-.87-4.45,1.31-3.83.81.23.74,2.87.55,3.51-.22.74-1.43.75-1.86.32Z"/>
      </g>
    </g>
  </g>
</svg>