<?xml version="1.0" encoding="UTF-8"?>
<svg id="Capa_1" xmlns="http://www.w3.org/2000/svg" version="1.1" viewBox="0 0 210.9 99">
  <!-- Generator: Adobe Illustrator 30.0.0, SVG Export Plug-In . SVG Version: 2.1.1 Build 123)  -->
  <defs>
    <style>
      .st0 {
        fill: #1f3f7a;
      }

      .st1 {
        fill: #2b6569;
      }
    </style>
  </defs>
  <g>
    <path class="st1" d="M95.7,40.1c0-.4,0-1,.1-1.6l2.8-.5c.3,0,.7-.2,1.2-.4l.3-5.5c0-2,0-3.5,0-4.4v-.5c0-.6,0-2.1,0-4.5v-.6c0,0,0-1.8,0-1.8v-1.9s0-.9,0-.9c0-.8,0-1.8-.2-3,0-.1,0-.3-.2-.5-.1,0-.2,0-.4,0-.1,0-.3,0-.4,0-.6-.1-1.2-.2-1.8-.2h-.3c-.4-.1-.7-.2-.9-.3,0-.4,0-.7,0-.8,0-.2,0-.4.1-.7.3,0,.7,0,1.2,0s.9,0,1.1,0c1.8.2,3.1.3,4,.3.4,0,.8,0,1.2,0s.8,0,1.1,0c.5,0,1.7,0,3.5-.2.3,0,.6-.1,1-.1.5,0,1,0,1.4,0,0,.3,0,.5,0,.7,0,.2,0,.5,0,.9l-3.9.6c-.3.1-.5.4-.5.6v.8s0,.4,0,.4v1s0,.7,0,.7v.2c0,.2,0,.3,0,.4v2.8c0,.3,0,.5,0,.6s0,.3,0,.7c0,.2,0,.5,0,.7s0,.7,0,1.6c.4,0,.8.1,1,.1h3.2c0,0,1.6,0,1.6,0h3.9s3.8,0,3.8,0c.5,0,1,0,1.6-.2,0-.5,0-1.7,0-3.7v-1s0-3.7,0-3.7l-.2-1.5c0-.1-.1-.2-.3-.3-.5-.3-1.5-.6-3.1-1-.3,0-.5-.1-.8-.2,0-.5,0-.9.2-1.3.3,0,.5,0,.6,0h2.1c1.4.2,2.7.3,4.1.3s.6,0,.8,0h2.8c.3-.1.5-.1.8-.1.5-.1,1.1-.2,1.6-.2s.9,0,1.5,0c0,.6,0,1.1-.1,1.6-1.3.3-2.2.5-2.6.6-.4.1-.8.3-1.3.5v.4c-.1,0-.1.4-.1.4v.6s0,.3,0,.3c0,.3,0,.5,0,.7v.5c0,.7,0,1,0,1.1v4.9s0,2.8,0,2.8c0,.6,0,2,0,4v5.7c0,.5,0,1.1,0,1.8.3,0,.6.2.9.2,1.4.3,2.4.6,3.1.9v1.5c-.5,0-.9,0-1,0-.7,0-1.5,0-2.4-.1-1.2-.1-3.1-.2-5.8-.2s-2.7,0-4.6.3c-.2,0-.5,0-.7-.1,0-.7,0-1.1.1-1.4l1.7-.4,1.8-.3c.2,0,.4-.1.7-.2.2-1.2.2-3.2.3-5.9v-1.9c0-.8-.1-1.7-.1-2.8-.5,0-1.1,0-1.8,0h-10.2c0-.1-.2-.1-.2-.1h-.2c-.1,0-.2,0-.4,0-.4,0-.7,0-1,0h-.6c-.3,0-.6,0-.9.2v1.6c-.1,0-.1.3-.1.3,0,.4,0,.7,0,.8v6.8c0,.4,0,.8,0,1.2h.2c0,.1,3.2.6,3.2.6.2,0,.3,0,.4.1.2,0,.4.1.5.2,0,.3,0,.6,0,.7,0,.2,0,.5,0,.8-.5,0-1,0-1.3,0s-.6,0-.9,0c-.1,0-.3,0-.4,0h-3.1c-.7-.2-1.8-.2-3.1-.2h-.5c-.6,0-1,0-1.1,0-.9.1-2.3.2-4.3.2Z"/>
    <path class="st1" d="M152.2,24.1c.9.9,1.6,2,2.1,3.1.5,1.2.7,2.3.7,3.3,0,2-.3,3.5-.9,4.7-.9,1.8-2.1,3.2-3.7,4-1.5.9-3.3,1.3-5.4,1.3s-4.2-.5-5.8-1.5c-1.6-1-2.7-2.2-3.4-3.5-.7-1.3-1-2.9-1-4.9s.2-2,.5-3c.3-1,.8-1.8,1.3-2.6.6-.7,1.2-1.3,1.9-1.8,1-.7,2-1.2,3-1.5,1-.3,2.2-.5,3.6-.5,3.1,0,5.5.9,7.2,2.7ZM140.2,31.7c.1,1.8.2,2.9.3,3.1.2,1,.5,1.8.9,2.5.3.5.7.9,1.4,1.2.6.4,1.4.5,2.3.5s2-.3,2.7-1c.7-.7,1.3-1.7,1.6-3.2.2-1,.3-2.5.3-4.7s-.4-4.6-1.3-5.7c-.9-1.1-2-1.7-3.5-1.7s-2.1.3-2.8.9-1.3,1.6-1.5,2.8c-.2.8-.3,2.5-.3,5.1Z"/>
    <path class="st1" d="M157.9,23.5c1.7-.7,3-1.4,3.7-2.1.8-.7,1.6-1.8,2.5-3.4h1.2c.1.4.2.8.2,1.2,0,.8,0,1.4,0,1.8v1.3c0,0,0,.2,0,.5h.5c0,0,.8,0,2.1,0,.1,0,.7,0,1.6,0,0,.4.1.7.1,1s0,.7-.2,1.2c-.5,0-.8.1-1.1.1s-.4,0-.7,0h-1.5s-1.1,0-1.1,0v8.4c0,1.6,0,2.6,0,3,0,.4.3.8.5,1.2.3.2.7.2,1.1.2s.7,0,.9-.1c.2,0,.5-.3,1-.6,0,0,.2-.2.4-.3.4.3.6.6.9.8v.3c-.4.8-1.1,1.4-2.1,1.9s-1.9.7-3,.7-2.5-.4-3.3-1.3c-.8-.9-1.3-2.2-1.3-4v-3.9c0,0,0-6.2,0-6.2h-.7s-1.6,0-1.6,0h-.3c0-.2-.1-.4-.1-.5s0-.4,0-1Z"/>
    <path class="st1" d="M172.5,28.5c.4-1.2.7-2.1,1-2.5.8-1.2,1.7-2.1,2.6-2.8s1.8-1.1,2.5-1.3c1-.3,1.7-.4,2.3-.4,1.4,0,2.5.1,3.3.3.8.2,1.6.5,2.1.9.8.6,1.5,1.1,2,1.7.5.6.9,1.3,1.2,2.1.3.8.5,1.7.5,2.9h-2.4c-.7,0-2.2-.1-4.4-.2-.8,0-1.4-.1-1.8-.1s-.9,0-2.4,0h-1.9c0,.2,0,.4,0,.5,0,.8,0,1.6.3,2.5.2.9.5,1.6.9,2.3.4.7.9,1.2,1.4,1.7.6.5,1.1.8,1.7,1l1.3.4c1.1,0,1.9,0,2.3-.1.7-.1,1.3-.3,1.9-.6.5-.2,1.2-.6,1.9-1.2.5.4,1,.7,1.3,1-1.3,1.4-2.6,2.4-4,3.1-1.4.6-2.9,1-4.6,1s-2.1-.1-2.8-.3c-1-.3-1.9-.7-2.7-1.2-.8-.5-1.5-1.2-2-2-.6-.8-1-1.6-1.3-2.5-.4-1.1-.5-2-.5-2.7,0-1.3.1-2.4.3-3.5ZM185.3,27.6c0-.8-.2-1.6-.5-2.4-.3-.8-.8-1.3-1.4-1.8s-1.3-.6-2-.6c-1,0-1.9.4-2.7,1.3-.8.9-1.2,2-1.3,3.5h5c.3,0,.8,0,1.4,0,.4,0,.7,0,.9,0s.3,0,.6,0Z"/>
    <path class="st1" d="M191.9,39.2c.3-.2.8-.4,1.3-.4,1-.1,1.6-.3,1.7-.5.3-.4.4-1.2.4-2.3v-7.7s0-4.4,0-4.4v-5.1s0-.9,0-.9c0-1.2,0-2.1-.3-2.7-.5-.3-1.1-.5-1.7-.5s-.7,0-1-.1c0-.4,0-.6,0-.8s0-.2,0-.4c1.2-.1,2.4-.4,3.6-.9s2.2-.9,2.8-1.4h.6c.1,0,.3,0,.6,0,0,5.1.1,8.5.1,10.4s0,1,0,1.3h0c0,.1,0,.5,0,.5v12.9s0,.5,0,.5c0,.6.1,1.1.3,1.3.2.2.5.3,1.1.4.3,0,.9.1,1.8.2,0,.3.1.6.1.7s0,.4,0,.6h-1.7c-1-.1-2.2-.2-3.6-.2h-.8c-.8,0-2,0-3.6.2h-1.6v-1Z"/>
  </g>
  <g>
    <path class="st0" d="M112.2,43.8c.1.3.4,1.1.8,2.5.2.6.3,1.3.3,2h-1.3c-.9-1.3-1.9-2.3-2.9-2.9-1-.6-2.1-.9-3.4-.9s-2.8.6-3.7,1.8c-1.3,1.6-1.9,3.9-1.9,6.8s.1,2.9.3,3.6c.4,1.2.8,2.1,1.3,2.8.4.6,1,1,1.6,1.3.9.4,1.8.7,2.8.7s2.1-.3,3.1-1,2-1.7,2.9-3c.4,0,.8-.1,1.4-.1,0,.4-.1.8-.2,1.2,0,.2-.1.8-.3,1.9v.4c-.1,0-.3.7-.3.7-.6.5-1.5.8-2.5,1-1.1.2-2.4.3-4,.3s-2.4-.1-3.4-.3c-1.1-.2-2-.6-2.8-1.1-1.1-.7-2-1.5-2.7-2.3-.6-.8-1.1-1.7-1.4-2.7s-.5-2.1-.5-3.3c0-2.9,1-5.4,2.9-7.3,1.9-1.9,4.4-2.9,7.4-2.9s2.4,0,3.5.2c1.1.1,2.1.3,3,.6Z"/>
    <path class="st0" d="M128.3,59.9l.3.2c0,0,.1.2.2.3h0c-.2,1-.5,1.6-.9,1.9-.4.3-.9.5-1.4.5s-1.1-.2-1.5-.5-.8-.9-1.1-1.7c-.4.8-1,1.3-1.8,1.7s-1.7.6-2.8.6-1.8-.2-2.3-.6c-.5-.4-.7-1-.7-1.7s0-.7.2-1,.4-.7.7-1,.8-.7,1.5-1.1c.1,0,.5-.2,1.1-.5l3.7-1.5c0-.4,0-.8,0-1.1,0-1.3-.2-2.2-.5-2.7-.2-.3-.5-.4-1-.4s-.9,0-1.4.3c-.4.2-.7.4-.9.7-.1.2-.3.6-.4,1.2,0,.4-.1.7-.2.8-.1.2-.4.4-.8.5-.4.2-.7.3-.8.3-.5.3-1,.4-1.3.4-.1-.1-.2-.3-.2-.5,0-.6.1-1,.4-1.5.4-.6.9-1.1,1.6-1.7.7-.5,1.4-.9,2-1.1.8-.3,1.9-.4,3.1-.4s1.5.1,2,.4c.6.3,1,.7,1.2,1.3.2.6.3,1.6.3,3.1v2.4s0,1.8,0,1.8v.5c0,.4,0,.7.2.9.1.2.3.2.4.2s.2,0,.3,0l.4-.7h.3ZM123.4,56.4c-.6.2-1.2.5-1.9.9-.7.4-1.2.9-1.5,1.3-.2.3-.3.7-.3,1.2s.1.8.4,1.1.6.4.9.4c.6,0,1-.2,1.4-.5.5-.4.8-.8.9-1s.1-1,.1-2.1,0-.9,0-1.3Z"/>
    <path class="st0" d="M129.7,61.9c.1-.1.3-.2.5-.2.5-.1,1-.3,1.4-.6,0-.2.1-1,.1-2.4,0-2.5,0-4.2-.2-5.1,0-.2,0-.3-.2-.4-.2-.1-.6-.2-1-.3-.2,0-.3-.2-.4-.3v-.5c.7,0,1.3-.3,1.9-.7.6-.4,1-.8,1.3-1.2.2-.2.3-.4.4-.5h1c0,.2,0,.4,0,.5s0,.2,0,.4c0,.3,0,.6,0,.9s0,.5,0,1.2c.4-.7.7-1.2.9-1.4,0-.1.4-.4.8-.7.3-.2.7-.4,1.1-.4s1,.2,1.4.5c.4.4.6.8.6,1.2s-.1.9-.4,1.3c-.3.4-.7.6-1.2.6s-.9-.2-1.3-.5c-.3-.2-.5-.3-.7-.3h-.1c-.2,0-.4.3-.6.6-.3.5-.4,1-.4,1.5v.4c0,.7,0,2.4.1,5.1,0,.2.1.5.3.7.2.1.4.2.5.3s.5.1,1,.1.7.1.8.2c0,0,.1.2.1.4s0,.3,0,.4h-4.2c-.7-.1-1.4-.1-1.9,0h-.3c0,0-.6,0-1.5,0,0-.2,0-.3,0-.4s0-.2,0-.4Z"/>
    <path class="st0" d="M152.7,51.9c.6.6,1.1,1.3,1.4,2.1.3.8.5,1.5.5,2.2,0,1.3-.2,2.4-.6,3.2-.6,1.2-1.4,2.1-2.5,2.7s-2.2.9-3.6.9-2.9-.3-3.9-1c-1.1-.7-1.8-1.5-2.3-2.4-.5-.9-.7-2-.7-3.3s.1-1.3.3-2,.5-1.2.9-1.7c.4-.5.8-.9,1.3-1.2.7-.5,1.3-.8,2-1,.7-.2,1.5-.3,2.4-.3,2.1,0,3.7.6,4.8,1.8ZM144.6,57c0,1.2.2,1.9.2,2.1.1.7.3,1.2.6,1.7.2.3.5.6.9.8.4.2,1,.4,1.6.4s1.3-.2,1.8-.7c.5-.5.8-1.2,1.1-2.2.1-.6.2-1.7.2-3.2s-.3-3.1-.9-3.8-1.4-1.1-2.3-1.1-1.4.2-1.9.6c-.5.4-.8,1.1-1,1.9-.1.5-.2,1.7-.2,3.4Z"/>
    <path class="st0" d="M155.8,62c.2-.2.5-.2.9-.3.7,0,1.1-.2,1.2-.3.2-.3.3-.8.3-1.6v-5.2s0-3,0-3v-3.4s0-.6,0-.6c0-.8,0-1.4-.2-1.8-.3-.2-.7-.3-1.1-.3s-.5,0-.7,0c0-.2,0-.4,0-.5s0-.2,0-.3c.8,0,1.6-.3,2.4-.6.8-.3,1.5-.6,1.9-1h.4c0,0,.2,0,.4,0,0,3.4,0,5.8,0,7s0,.7,0,.9h0c0,0,0,.4,0,.4v8.7s0,.4,0,.4c0,.4,0,.7.2.9.1.1.4.2.8.2.2,0,.6,0,1.2.1,0,.2,0,.4,0,.5s0,.2,0,.4h-1.2c-.7,0-1.5-.1-2.5-.1h-.5c-.6,0-1.4,0-2.4.1h-1.1v-.7Z"/>
    <path class="st0" d="M164,62.7v-1s1.6-.2,1.6-.2c.2,0,.4-.2.5-.3,0-.1.1-.4.1-.9v-.2c0-.1,0-.3,0-.6,0-.3,0-.6,0-.8s0-.5,0-1.1v-.7s0-.7,0-.7v-2.4c0-.3,0-.6,0-.9-.1-.1-.3-.3-.6-.4-.3-.1-.8-.2-1.5-.2v-.8c1,0,1.9-.3,2.7-.6.5-.2,1.1-.7,1.7-1.3h1c0,1.2,0,2.8,0,4.8v6c-.1.4,0,.8,0,1.1.3.1.8.2,1.5.3.3,0,.5,0,.6.1v.8c-.3,0-.5,0-.6,0s-.4,0-.7,0c-1,0-2.4,0-4,0s-1,0-1.4,0-.8,0-.9,0ZM166.1,45c0-.5.2-1,.5-1.3.3-.3.8-.5,1.3-.5s1.1.2,1.5.5c.4.4.6.8.6,1.2s0,.7-.2,1c-.2.3-.4.6-.7.8-.3.2-.7.3-1,.3s-.9-.2-1.3-.6c-.4-.4-.6-.9-.6-1.5Z"/>
    <path class="st0" d="M172.7,61.9c.3-.1.5-.2.7-.2.5,0,.9-.2.9-.2.1,0,.2-.2.3-.3,0-.2,0-.6,0-1.3v-2.3s0-1.6,0-1.6v-.9c0-.6,0-1.1-.1-1.5,0-.1-.2-.3-.4-.4-.3-.2-.7-.4-1.4-.6v-.7c.1,0,.2,0,.3,0,.1,0,.5-.1,1.2-.3.5-.2.9-.3,1.1-.4,0,0,.1,0,.2-.1.1,0,.3-.2.4-.3.3-.2.7-.6,1.1-1.1h.8c0,0,0,1.6,0,1.6,0,.2,0,.3,0,.4s0,.3,0,.7c.8-.7,1.6-1.2,2.2-1.5.9-.4,1.7-.5,2.5-.5s1.7.2,2.4.7c.7.5,1.2,1,1.4,1.6.2.6.3,1.8.3,3.7v4.8c0,.2,0,.4,0,.6,0,0,.4.1.8.2h.7c0,.3.1.4.1.6s0,.3,0,.5l-2.9-.2h-.9s-.7,0-.7,0h-2c0,.1-.5.1-.5.1,0-.1,0-.2,0-.3,0-.2,0-.4,0-.6.1,0,.5,0,1-.1.1,0,.3,0,.5-.1.2,0,.3-.2.3-.2,0-.2.1-.5.1-1,0-.8,0-1.5,0-1.9v-1.7c0-2.1-.1-3.4-.4-3.9-.4-.7-.9-1.1-1.7-1.1s-1.1.1-1.7.4c-.6.3-1.2.7-1.8,1.3v.3s0,.9,0,.9v1s0,2.4,0,2.4v.4c0,1.6,0,2.5.2,2.7s.6.4,1.5.7c0,.2,0,.3,0,.4,0,.1,0,.3-.1.5-.3,0-.6,0-.8,0s-.5,0-1-.1h-1.6c-.8,0-1.9,0-3.4,0,0,0,0-.2,0-.3s0-.2,0-.5Z"/>
    <path class="st0" d="M202.6,59.9l.3.2c0,0,.1.2.2.3h0c-.2,1-.5,1.6-.9,1.9-.4.3-.9.5-1.4.5s-1.1-.2-1.5-.5-.8-.9-1.1-1.7c-.4.8-1,1.3-1.8,1.7s-1.7.6-2.8.6-1.8-.2-2.3-.6c-.5-.4-.7-1-.7-1.7s0-.7.2-1,.4-.7.7-1,.8-.7,1.5-1.1c.1,0,.5-.2,1.1-.5l3.7-1.5c0-.4,0-.8,0-1.1,0-1.3-.2-2.2-.5-2.7-.2-.3-.5-.4-1-.4s-.9,0-1.4.3c-.4.2-.7.4-.9.7-.1.2-.3.6-.4,1.2,0,.4-.1.7-.2.8-.1.2-.4.4-.8.5-.4.2-.7.3-.8.3-.5.3-1,.4-1.3.4-.1-.1-.2-.3-.2-.5,0-.6.1-1,.4-1.5.4-.6.9-1.1,1.6-1.7.7-.5,1.4-.9,2-1.1.8-.3,1.9-.4,3.1-.4s1.5.1,2,.4c.6.3,1,.7,1.2,1.3.2.6.3,1.6.3,3.1v2.4s0,1.8,0,1.8v.5c0,.4,0,.7.2.9.1.2.3.2.4.2s.2,0,.3,0l.4-.7h.3ZM197.7,56.4c-.6.2-1.2.5-1.9.9-.7.4-1.2.9-1.5,1.3-.2.3-.3.7-.3,1.2s.1.8.4,1.1.6.4.9.4c.6,0,1-.2,1.4-.5.5-.4.8-.8.9-1s.1-1,.1-2.1,0-.9,0-1.3Z"/>
  </g>
  <g>
    <path class="st0" d="M98.6,74.7c.5-.4,1-.6,1.5-.8s1.2-.3,2.1-.4h.9c1.2,0,2.3.4,3.4,1.2v-.4s0-1.1,0-1.1v-1.7c0-1.8,0-3-.4-3.5-.2-.3-.4-.5-.9-.5-.4,0-.7,0-1-.2v-.8c.2,0,.5-.1.8-.1.3,0,1-.1,1.9-.3h.6c0-.1,1.6-.5,1.6-.5.3,0,.5-.1.6-.1s.1,0,.3,0c0,.2,0,.4,0,.5v.2s0,.3,0,.3c0,.3,0,1.1,0,2.4v1.4s0,.8,0,.8v1.7s0,1,0,1c0,.4,0,1.1,0,2.1s0,.3,0,.4v.6c0,.2,0,.3,0,.4,0,.2,0,.4,0,.7v1.2c0,.3,0,.7,0,1.3s0,1.1,0,1.5c0,.2,0,.4,0,.5v1.2c0,.4,0,.9,0,1.4.2.1.7.2,1.4.3.2,0,.5,0,.6,0,0,.2,0,.3,0,.4s0,.2-.1.4c-.4.1-.9.2-1.4.2-1.5.2-2.5.4-3.2.8-.3.2-.5.3-.6.3s-.3,0-.4,0c0-.2,0-.3,0-.4,0-.7,0-1.2,0-1.4-.2,0-.4.2-.6.3-.7.4-1.4.7-2,.9-.6.2-1.3.3-2.1.3-1.4,0-2.5-.3-3.3-.8-1.2-.8-2-1.7-2.5-2.7-.5-1.1-.7-2.2-.7-3.5,0-2.2,1-4.1,3-5.6ZM103.6,85.5c.2,0,.4,0,.6,0,.4,0,.7,0,1.1-.2.4-.1.8-.4,1.3-.7,0-.4,0-.6,0-.7,0-3.4,0-5.5-.1-6.2-.1-.9-.5-1.7-1.1-2.2-.6-.5-1.3-.8-2.1-.8s-.9,0-1.4.3c-.4.2-.8.4-1.1.7-.4.5-.7,1-.9,1.6-.3.8-.4,1.6-.4,2.4,0,1.8.4,3.1,1.1,4.1.7.9,1.7,1.5,2.9,1.6Z"/>
    <path class="st0" d="M114.1,78.6c.3-.9.5-1.5.7-1.8.6-.9,1.3-1.6,1.9-2.1.7-.5,1.3-.8,1.9-1,.7-.2,1.3-.3,1.7-.3,1,0,1.8,0,2.5.2.6.2,1.2.4,1.6.7.6.4,1.1.9,1.5,1.3s.7.9.9,1.5c.2.6.4,1.3.4,2.1h-1.8c-.5,0-1.6,0-3.3-.2-.6,0-1.1,0-1.3,0s-.7,0-1.8,0h-1.4c0,.2,0,.3,0,.4,0,.6,0,1.2.2,1.8.1.6.4,1.2.6,1.7.3.5.6.9,1.1,1.2.4.3.9.6,1.3.8l.9.3c.8,0,1.4,0,1.7,0,.5-.1,1-.2,1.4-.4.4-.2.9-.5,1.4-.9.4.3.7.5,1,.8-1,1.1-1.9,1.8-3,2.3-1,.5-2.2.7-3.4.7s-1.6,0-2.1-.2c-.7-.2-1.4-.5-2-.9-.6-.4-1.1-.9-1.5-1.5s-.7-1.2-.9-1.8c-.3-.8-.4-1.5-.4-2,0-.9,0-1.8.2-2.6ZM123.6,77.9c0-.6-.1-1.2-.4-1.8-.2-.6-.6-1-1.1-1.3-.5-.3-1-.5-1.5-.5-.7,0-1.4.3-2,1-.6.6-.9,1.5-1,2.6h3.7c.2,0,.6,0,1,0,.3,0,.5,0,.7,0s.2,0,.4,0Z"/>
    <path class="st0" d="M128.5,86.5c.2-.2.6-.3,1-.3.8,0,1.2-.2,1.3-.3.2-.3.3-.9.3-1.7v-5.7s0-3.3,0-3.3v-3.8s0-.7,0-.7c0-.9,0-1.5-.2-2-.4-.2-.8-.3-1.2-.3s-.5,0-.7,0c0-.3,0-.5,0-.6s0-.2,0-.3c.9,0,1.7-.3,2.7-.7.9-.3,1.6-.7,2.1-1.1h.5c0,0,.2,0,.4,0,0,3.8,0,6.3,0,7.7s0,.7,0,1h0c0,0,0,.4,0,.4v9.6s0,.4,0,.4c0,.5,0,.8.2,1,.1.1.4.2.8.3.2,0,.7,0,1.3.2,0,.2,0,.4,0,.6s0,.3,0,.5h-1.3c-.7-.1-1.6-.1-2.7-.1h-.6c-.6,0-1.5,0-2.7.1h-1.2v-.8Z"/>
    <path class="st0" d="M146,87.2v-1.1c1.4-.2,2.3-.5,2.6-.8.2-.3.4-.9.6-2l.2-5.8.2-5.9c0-.4,0-.6,0-.7,0-1.5,0-2.4-.3-2.7-.2-.2-.9-.5-2.1-.7-.3,0-.5-.1-.7-.2,0-.3,0-.5,0-.7v-.5c.4,0,.9,0,1.4,0l4.8.2c.1,0,.3,0,.5,0h.7c.2.3.4.5.6.9.4.8.9,2,1.6,3.5l.2.4,2.5,5.5c0,.1.1.3.3.6.2.4.4.8.5,1.1.2.4.3.7.5,1.2.2.4.4.8.5,1.1.2-.3.3-.5.4-.9.4-1,.9-1.9,1.3-2.8.7-1.5,1.7-3.7,2.9-6.8.2-.5.5-1.2,1-2.2.5-1,.7-1.5.7-1.6,0,0,.3-.1.6-.1s.3,0,.5,0c.6,0,1.2,0,2,0,1.1,0,2.1,0,2.7-.1.7,0,1.1,0,1.2,0s.2,0,.4,0c0,.2,0,.3,0,.4v.5c0,0,0,.2,0,.4-1,.2-1.9.4-2.5.7-.4.2-.7.5-.7.8v.2l.3,5c0,.5.1,2.7.3,6.8,0,.9.1,2.1.2,3.5,0,.2,0,.3,0,.4,0,.3,0,.4.2.5.1,0,1.1.4,2.9.9,0,.2,0,.3,0,.4,0,.2,0,.5,0,.7-.3,0-1,0-2.2-.2-1.2-.1-2.3-.2-3.3-.2-1.6,0-3.1,0-4.6.2-.2,0-.4,0-.6,0v-1.1c.5-.2,1.1-.3,1.8-.4.5,0,.9-.2,1-.4.1-.2.2-.8.2-1.7s0-.7,0-.9c0-1.1,0-2.7,0-4.8l-.3-5.8c0-.8,0-1.4-.1-1.7l-4.1,9.3c0,.2-.2.5-.4.9-.2.5-.4.9-.5,1.1-.8,2-1.4,3.5-1.7,4.6,0,.3-.2.6-.4,1.1h-1.3s-.9-2.5-.9-2.5c-.3-.7-.7-1.6-1.3-3-.4-.8-.7-1.4-.9-1.9,0-.2-.2-.3-.2-.4l-.2-.4c0,0,0-.1,0-.2l-2.4-5.2-1.5-3.2v7.7c-.1,0-.2,5-.2,5,0,.8.2,1.4.5,1.8.3.4,1,.7,2,.9l.8.2v1.2c-.6,0-1.3,0-2-.1s-1.7-.1-2.9-.1-1.3,0-3.2.1Z"/>
    <path class="st0" d="M191,84.2l.4.2c0,0,.2.2.2.3h0c-.3,1-.6,1.7-1,2.1-.4.4-1,.5-1.6.5s-1.2-.2-1.7-.5c-.5-.4-.9-1-1.3-1.9-.5.8-1.1,1.4-2,1.9-.8.4-1.9.6-3.1.6s-2-.2-2.5-.7c-.5-.5-.8-1.1-.8-1.9s0-.7.2-1.1c.2-.4.4-.7.8-1.1.4-.4.9-.8,1.7-1.2.1,0,.5-.2,1.2-.6l4.1-1.6c0-.4,0-.8,0-1.3,0-1.5-.2-2.5-.5-3-.2-.3-.6-.5-1.1-.5s-1,.1-1.5.3-.8.5-1,.8c-.2.2-.3.7-.4,1.4,0,.5-.1.8-.2.8-.2.2-.5.4-.9.6-.4.2-.7.3-.9.4-.6.3-1.1.4-1.4.4-.2-.1-.2-.3-.2-.6,0-.6.1-1.2.4-1.6.4-.6,1-1.2,1.8-1.8.8-.6,1.5-1,2.2-1.2.9-.3,2.1-.5,3.4-.5s1.6.2,2.2.5c.6.3,1.1.8,1.3,1.4.2.6.4,1.8.4,3.4v2.7s0,2,0,2v.5c0,.5,0,.8.2.9.1.2.3.3.5.3s.2,0,.3,0l.5-.8h.3ZM185.7,80.4c-.6.2-1.3.6-2.1,1-.8.5-1.3,1-1.6,1.5-.2.4-.3.8-.3,1.3s.1.9.4,1.2c.3.3.6.5,1,.5.6,0,1.1-.2,1.5-.5.6-.5.9-.8,1-1.1,0-.3.1-1.1.1-2.4s0-1,0-1.4Z"/>
    <path class="st0" d="M192.6,86.4c.1-.1.3-.2.6-.3.6-.1,1.1-.3,1.6-.7,0-.3.1-1.1.1-2.6,0-2.7,0-4.6-.2-5.6,0-.2-.1-.3-.3-.5-.3-.1-.6-.3-1.1-.4-.2,0-.3-.2-.4-.4v-.6c.8-.1,1.5-.4,2.1-.8.7-.4,1.1-.9,1.5-1.3.2-.2.3-.4.5-.6h1.1c0,.2,0,.4,0,.6s0,.3,0,.4c0,.4,0,.7,0,.9s0,.6,0,1.4c.4-.8.8-1.3,1-1.5,0-.1.4-.4.9-.8.4-.3.8-.4,1.3-.4s1.1.2,1.5.6c.4.4.6.8.6,1.4s-.2,1-.5,1.4c-.3.4-.7.6-1.3.6s-1-.2-1.5-.6c-.3-.2-.5-.4-.7-.4h-.1c-.2,0-.4.3-.6.6-.3.5-.5,1.1-.5,1.7v.4c0,.8.1,2.7.1,5.6,0,.3.1.5.3.8.2.2.4.3.6.3.2,0,.6.1,1.1.2.5,0,.8.1.9.2.1,0,.2.2.2.5s0,.3,0,.5h-4.6c-.8-.1-1.5-.1-2.1,0h-.3c0,0-.6,0-1.7,0,0-.2,0-.3,0-.4s0-.2,0-.4Z"/>
  </g>
  <path class="st0" d="M70.2,16.3c.5,2.9.7,5.9.7,9s0,1.4,0,2.5c-.5.1-.9.2-1.2.2s-.6,0-1-.1c-1.6-4.5-4.2-7.9-7.8-10.3-3.6-2.4-8.1-3.6-13.4-3.6s-5.2.3-7.1,1c-3.4,1.2-6.4,2.8-9,4.9-2.6,2.1-4.8,4.6-6.6,7.4-1.8,2.9-3.2,6.4-4.3,10.5-1,4.1-1.6,8.3-1.6,12.5,0,8.2,1.2,14.9,3.7,20.2,2.5,5.3,5.9,9.1,10.2,11.4,4.3,2.3,8.6,3.4,13,3.4h2.7c3-.4,5.1-.8,6.2-1.1,2.8-.8,5.1-1.7,6.9-2.8,1.8-1.1,3.6-2.6,5.3-4.6,1.7-2,3.2-4.3,4.4-6.9l.7-.2c.2,0,.5.1.9.3,0,.9,0,1.5-.1,1.8-1.6,6.4-2.8,10.8-3.5,13.2-.6.2-1.4.4-2.3.7-4.5,1.5-10.4,2.3-17.9,2.3s-10.5-.4-13.5-1.2c-3-.8-6.2-2.1-9.8-3.8-3.5-1.7-6.6-4-9.3-6.9-2.7-2.9-4.8-6.5-6.5-10.8-1.6-4.4-2.5-9.1-2.5-14.3s.6-9.1,1.9-12.8c1.3-3.6,3.3-7.3,6-11.1,2.7-3.7,5.9-6.8,9.6-9.3,3.7-2.5,7.8-4.2,12.3-5.3,3.2-.7,7.6-1,13.4-1s8.2.6,11.9,1.7c3.7,1.1,6.2,2.2,7.5,3.3Z"/>
  <path class="st1" d="M66.2,67.3c-.2-.2-.9-.4-2-.7l-2.3-.5c-.3-.1-.5-.3-.6-.6-.2-.5-.3-1.5-.3-2.7v-3.8c0-2,0-3.4,0-4.3v-4.6c0,0,0-4.9,0-4.9v-2.6c0,0,0-2,0-2v-3.3c0-.2,0-.7,0-1.3,0-.2,0-.4,0-.6,0-.8.2-1.3.5-1.6.4-.2,1-.3,1.6-.3,1,0,1.9-.3,2.6-.5,0-.3.1-.6.1-1-2.6.2-4.4.3-5.5.3-1.7,0-3.5,0-5.2-.1h-1.9c-.2-.1-.6,0-1.2,0,0,.4,0,.7.1,1,.3,0,.6.1.9.1,1.8.2,2.8.4,2.9.5.2.1.3.3.4.6.1.5.2,2.3.2,5.2s0,1.8,0,2.7h-1.8c-.5,0-.9.2-1.2.5l-7.5,7.5-7.6-7.5c-.3-.3-.8-.5-1.2-.5h-1.5c0-1.8,0-3.6,0-5.3s.2-2.7.7-3.1c.4-.4,1.9-.7,4.4-.9.2,0,.4-.1.4-.2,0-.1.1-.2.1-.4s0-.3,0-.5c-2.1,0-3.7.1-4.7.2-2.1.2-4.1.2-6,.2h-2.7c-.2,0-.6,0-1,0,0,.2,0,.4,0,.5s0,.3.1.5c.3,0,1,.1,1.8.2,1.1,0,1.8.2,2,.3.2.1.3.3.4.6,0,.3.1,1.2.1,2.8s0,1.5,0,3,0,2.8,0,4v7.7c0,0,0,.9,0,2.3,0,1.4,0,2.6,0,3.6v2.3c0,0,0,2,0,2v2.2c0,.6,0,1.3-.3,1.9-.2.3-.4.6-.8.8-.4.2-1.2.4-2.5.5-.8,0-1.6.3-2.2.7v.6c.3,0,.8,0,1.3,0,2.7-.1,4.6-.2,5.8-.2s1.5,0,2.5.1c1.4.1,2.6.2,3.6.2.6,0,1,0,1.2,0,.2,0,.4,0,.5,0s.4,0,.5-.1c0,0,.1-.1.1-.2l-.2-.3c-.5-.2-1.1-.3-2-.5-1.3-.3-2-.5-2.2-.6-.2-.2-.4-.4-.5-.8-.2-.8-.3-2.6-.3-5.1s0-1,0-1.6c0-3.2.1-5,.1-5.3v-2c0-.4.2-5.8.2-5.8,0-.2,0-.3,0-.5h.7l8.4,8.3c.3.3.8.5,1.2.5s.9-.2,1.2-.5l8.2-8.3h1c0,.7,0,1.5,0,2.2,0,0,0,3.2.1,3.3,0,3.1,0,5.4,0,7s0,.8,0,2v4.1c0,.7-.2,1.2-.5,1.5-.5.5-1.3.8-2.2.9-1.3.1-2.2.4-2.8.7,0,.2,0,.4,0,.5s0,.3,0,.5c2.4-.4,3.9-.6,4.7-.6.7,0,2,0,3.8,0s4.4.2,6.5.6c.2,0,.3,0,.4,0h.1s0-.4,0-.4c0-.2-.1-.5-.3-.6Z"/>
  <rect class="st0" x="83.2" y="11.2" width="1.8" height="76.5" rx=".9" ry=".9"/>
</svg>