<?xml version="1.0" encoding="UTF-8"?>
<svg id="Capa_2" data-name="Capa 2" xmlns="http://www.w3.org/2000/svg" viewBox="0 0 91.85 91.85">
  <defs>
    <style>
      .cls-1 {
        fill: #fff;
      }

      .cls-2 {
        fill: #396569;
        stroke: #fff;
        stroke-miterlimit: 10;
        stroke-width: 3px;
      }
    </style>
  </defs>
  <g id="Grids_Guides" data-name="Grids + Guides">
    <g>
      <circle class="cls-2" cx="45.93" cy="45.93" r="44.43"/>
      <g>
        <path class="cls-1" d="M26.31,44.97l16.13-.04c1.34.15,1.41,1.69.13,1.98h-16.01c-1.28.19-2.48,1.15-2.62,2.49-.45,4.16.33,9.08,0,13.33.14,1.3,1.3,2.41,2.62,2.49h40.69c1.42-.11,2.5-1.21,2.62-2.62.37-4.19-.29-8.94,0-13.19-.14-1.33-1.34-2.29-2.62-2.48h-16.01c-1.39-.34-1.12-1.98.27-1.99,5.05.37,10.76-.47,15.74,0,2.45.24,4.31,2.03,4.61,4.47-.25,4.28.34,8.95,0,13.19-.17,2.09-1.52,3.79-3.52,4.42-14.24.31-28.63.31-42.87,0-1.85-.56-3.29-2.21-3.5-4.16-.46-4.22.3-9.15-.02-13.45.27-2.34,2.02-4.1,4.36-4.43Z"/>
        <path class="cls-1" d="M45.45,17.33c5.31-.35,10.57,1.31,14.7,4.64,1.03.84,2.35,1.9,2.48,3.33.22,2.29-1.64,3.82-3.86,3.44-1.15-.2-3.3-2.46-4.6-3.2-4.91-2.8-11.15-2.49-15.74.79-.79.57-1.57,1.47-2.32,1.94-3.37,2.08-6.98-2.06-3.54-5.38,3.3-3.18,8.31-5.26,12.87-5.56ZM45.03,19.32c-3.13.26-6.45,1.54-9,3.33-.59.41-2.53,1.91-2.77,2.48-.49,1.2.66,2.16,1.72,1.58.55-.3,1.68-1.53,2.38-2.02,5.38-3.8,12.74-4.02,18.32-.51,1.21.76,2.22,1.75,3.35,2.61,1.09.34,1.96-.57,1.51-1.66-.31-.75-3.07-2.74-3.87-3.21-3.51-2.09-7.57-2.93-11.64-2.59Z"/>
        <path class="cls-1" d="M45.31,26.26c3.37-.36,8.16.83,10.31,3.64,2.17,2.83-.81,6.39-3.89,4.88-.75-.37-1.41-1.26-2.28-1.68-2.23-1.08-4.26-.62-6.22.72-.38.26-.61.67-1.07.91-2.54,1.36-5.41-.96-4.57-3.72.74-2.43,5.37-4.5,7.73-4.75ZM46.44,28.11c-1.96.1-4.16.89-5.71,2.09-.84.65-2.28,2.15-.6,2.87,1.06.46,1.49-.52,2.18-1,2.61-1.84,6.02-1.98,8.74-.28.84.53,1.55,1.74,2.61,1.28,1.72-.74.17-2.29-.68-2.93-1.78-1.33-4.32-2.13-6.54-2.02Z"/>
        <path class="cls-1" d="M36.41,56.27c.35.04.23,0,.3-.2.28-.76,1.13-4.32,1.5-4.63.46-.38,1.04-.28,1.47.11l1.62,4.86c.35-1.36.45-2.95.82-4.29s2.01-1.21,1.93.37c-.12,2.29-1.25,5.12-1.47,7.47-.07.34-.28.67-.59.83-2.11,1.11-2.31-4.06-3.1-5.09-.63,1.01-1.05,4.59-2,5.09-1.54.81-1.75-1.24-1.97-2.24-.49-2.17-.84-4.39-1.2-6.59,2.24-2.84,2.35,2.98,2.69,4.32Z"/>
        <path class="cls-1" d="M52.71,53.16v1.84h2.06c.13,0,.7.48.75.67.49,1.67-1.83,1.31-2.81,1.32v3.19c0,.74-1.66,1.13-1.96.11l.03-8.41c.16-.46.56-.63,1.01-.69.87-.12,4.76-.35,3.96,1.4-.03.07-.53.57-.57.57h-2.48Z"/>
        <path class="cls-1" d="M50.06,38.28c0,1.75-1.42,3.17-3.17,3.17s-3.17-1.42-3.17-3.17,1.42-3.17,3.17-3.17,3.17,1.42,3.17,3.17ZM48.12,38.29c0-.67-.55-1.22-1.22-1.22s-1.22.55-1.22,1.22.55,1.22,1.22,1.22,1.22-.55,1.22-1.22Z"/>
        <path class="cls-1" d="M59.76,60.77c-.8.65-1.56-.15-1.66-1.02-.17-1.52-.19-6.02.01-7.5.21-1.49,1.83-1.29,1.98-.16-.24,2.49.3,5.53,0,7.95-.03.22-.17.6-.33.73Z"/>
        <path class="cls-1" d="M48.14,51.49c.17.17.16.5.18.74.22,2.58-.17,5.47,0,8.08-.16.82-1.69,1-1.84-.28-.29-2.49.22-5.53,0-8.08.19-.71,1.14-1.01,1.66-.46Z"/>
        <circle class="cls-1" cx="46.9" cy="45.93" r=".97"/>
      </g>
    </g>
  </g>
</svg>