<?xml version="1.0" encoding="UTF-8"?>
<svg xmlns="http://www.w3.org/2000/svg" version="1.1" xmlns:xlink="http://www.w3.org/1999/xlink" viewBox="0 0 200 200">
  <!-- Generator: Adobe Illustrator 30.0.0, SVG Export Plug-In . SVG Version: 2.1.1 Build 123)  -->
  <defs>
    <style>
      .st0 {
        fill: url(#linear-gradient2);
      }

      .st1 {
        fill: #fff;
      }

      .st2 {
        fill: url(#linear-gradient1);
      }

      .st3 {
        fill: none;
      }

      .st4 {
        fill: #1f3f7a;
      }

      .st5 {
        fill: #2b6569;
      }

      .st6 {
        isolation: isolate;
      }

      .st7 {
        mix-blend-mode: multiply;
      }

      .st8 {
        fill: url(#linear-gradient3);
      }

      .st9 {
        fill: url(#linear-gradient);
      }
    </style>
    <linearGradient id="linear-gradient" x1="98.2" y1="355.8" x2="98.2" y2="495.2" gradientTransform="translate(0 456.1) scale(1 -1)" gradientUnits="userSpaceOnUse">
      <stop offset="0" stop-color="#a0c8a4"/>
      <stop offset="0" stop-color="#99c49a"/>
      <stop offset=".1" stop-color="#8bbb88"/>
      <stop offset=".2" stop-color="#82b67c"/>
      <stop offset=".3" stop-color="#80b579"/>
      <stop offset=".7" stop-color="#4792ac"/>
      <stop offset=".9" stop-color="#2d6eaa"/>
      <stop offset="1" stop-color="#26529d"/>
    </linearGradient>
    <linearGradient id="linear-gradient1" x1="91.1" y1="388" x2="109.4" y2="494.9" xlink:href="#linear-gradient"/>
    <linearGradient id="linear-gradient2" x1="93.8" y1="192.6" x2="93.8" y2="332" gradientTransform="translate(196.3 -89.1) rotate(-180) scale(1 -1)" xlink:href="#linear-gradient"/>
    <linearGradient id="linear-gradient3" x1="86.7" y1="224.8" x2="105.1" y2="331.7" gradientTransform="translate(196.3 -89.1) rotate(-180) scale(1 -1)" xlink:href="#linear-gradient"/>
  </defs>
  <g class="st6">
    <g id="Capa_1">
      <g>
        <path class="st4" d="M141.3,54.2c.6,4,.9,8.2.9,12.4s0,2,0,3.4c-.7.2-1.3.2-1.7.2s-.8,0-1.3-.2c-2.2-6.1-5.8-10.8-10.8-14.1-5-3.3-11.1-5-18.5-5s-7.2.4-9.8,1.3c-4.7,1.6-8.9,3.9-12.4,6.7-3.6,2.9-6.6,6.3-9,10.2-2.5,4-4.4,8.8-5.9,14.4-1.4,5.6-2.2,11.4-2.2,17.3,0,11.2,1.7,20.5,5.1,27.8,3.4,7.3,8.1,12.5,14,15.6,5.9,3.1,11.9,4.7,17.9,4.7h3.7c4.2-.6,7-1.1,8.6-1.6,3.8-1.1,7-2.4,9.5-3.9,2.5-1.5,4.9-3.6,7.3-6.3,2.4-2.7,4.4-5.9,6.1-9.5l.9-.3c.3,0,.7.2,1.2.5,0,1.3-.1,2.1-.2,2.4-2.2,8.9-3.8,14.9-4.8,18.2-.8.2-1.9.5-3.1.9-6.1,2.1-14.3,3.1-24.6,3.1s-14.5-.6-18.6-1.7c-4.1-1.1-8.6-2.9-13.4-5.3-4.8-2.4-9.1-5.5-12.8-9.5-3.7-3.9-6.6-8.9-8.9-14.9-2.3-6-3.4-12.5-3.4-19.6s.9-12.6,2.7-17.6c1.8-5,4.5-10.1,8.3-15.2,3.7-5.1,8.1-9.4,13.2-12.8,5.1-3.4,10.7-5.8,16.9-7.2,4.3-.9,10.5-1.4,18.5-1.4s11.3.8,16.4,2.3c5.1,1.5,8.6,3.1,10.3,4.5Z"/>
        <path class="st5" d="M135.8,124.4c-.3-.2-1.2-.6-2.8-1l-3.2-.7c-.4-.2-.6-.4-.8-.8-.3-.8-.5-2-.5-3.8v-5.3c0-2.7,0-4.7,0-6v-6.4c0,0,0-6.8,0-6.8v-3.6c0,0,0-2.8,0-2.8v-4.5c0-.3,0-.9,0-1.8,0-.3,0-.6,0-.9,0-1.1.2-1.9.7-2.2.6-.2,1.3-.4,2.2-.4,1.4-.1,2.6-.3,3.5-.7.1-.4.2-.9.2-1.4-3.6.3-6.1.4-7.6.4-2.4,0-4.8,0-7.1-.2h-2.6c-.2-.1-.8,0-1.7,0,0,.5,0,1,.2,1.4.4,0,.8.1,1.2.2,2.5.3,3.9.5,4,.6.3.2.4.5.5.9.2.7.3,3.1.3,7.2s0,2.4,0,3.7h-2.4c-.6,0-1.3.3-1.7.7l-10.3,10.4-10.5-10.4c-.5-.4-1.1-.7-1.7-.7h-2.1c0-2.5,0-4.9,0-7.3s.3-3.7.9-4.3c.6-.6,2.6-1,6-1.3.3,0,.5-.1.6-.3.1-.1.2-.3.2-.6s0-.4,0-.7c-2.9,0-5,.2-6.5.3-2.9.2-5.7.3-8.2.3h-3.7c-.3,0-.8,0-1.4,0,0,.3,0,.5,0,.7s0,.4.2.7c.5,0,1.3.2,2.5.3,1.6.1,2.5.3,2.8.4.3.2.5.4.6.8.1.4.2,1.7.2,3.9s0,2.1-.1,4.1-.1,3.8-.1,5.5v10.6c0,.1,0,1.2-.1,3.2,0,2-.1,3.6-.1,5v3.2c0,0,0,2.7,0,2.7v3c0,.9-.1,1.8-.5,2.6-.2.4-.6.8-1.1,1-.5.2-1.7.5-3.5.7-1.2.1-2.2.4-3.1.9v.9c.5,0,1.1,0,1.8,0,3.7-.2,6.3-.3,8-.3s2.1,0,3.4.2c2,.2,3.6.2,4.9.3.8,0,1.4,0,1.7,0,.3,0,.5,0,.7,0s.5,0,.7-.2c.1,0,.2-.2.2-.3l-.2-.4c-.6-.2-1.5-.5-2.7-.7-1.8-.4-2.8-.7-3-.8-.3-.2-.6-.6-.7-1.1-.3-1.2-.4-3.5-.4-7.1s0-1.3,0-2.3c.1-4.5.2-6.9.2-7.4v-2.7c0-.6.2-8,.2-8,0-.2,0-.5,0-.7h1l11.5,11.4c.5.5,1.1.7,1.7.7s1.2-.2,1.7-.7l11.3-11.4h1.3c0,1,0,2,0,3,0,0,.1,4.4.1,4.6,0,4.2.1,7.4.1,9.6s0,1.1-.1,2.8v5.6c0,.9-.2,1.6-.7,2.1-.8.7-1.8,1.1-3.1,1.2-1.7.2-3,.5-3.8,1,0,.3,0,.6,0,.7s0,.4,0,.7c3.2-.5,5.4-.8,6.4-.9,1,0,2.8-.1,5.2-.1s6.1.3,8.9.8c.2,0,.4,0,.5,0h.2s.1-.5.1-.5c0-.3-.1-.6-.4-.9Z"/>
      </g>
      <g>
        <rect class="st3" x="-15.2" y="-6.4" width="226.7" height="69.7"/>
        <path class="st9" d="M211.5,55V-6.4H-15.2v44.5C-7.2,28.6,18.9,5,73,20.4c36.6,10.4,92.3,31.1,138.5,34.6Z"/>
        <path class="st2" d="M73,11.6C18.9-2.4-7.2,19-15.2,27.6V10.5C-7.2,1.9,29.8-9.1,83.9,4.9c36.6,9.4,81.2,34.6,127.4,37.8l.2.3c-46.2-3.2-101.9-22-138.5-31.4Z"/>
        <path class="st1" d="M73,18.6C18.9,6.2-7.2,25.2-15.2,32.9v-1C-7.2,24.2,18.9,2.2,73,14.6c36.6,8.4,92.3,19.9,138.5,22.8v9.2c-46.2-2.9-101.9-19.6-138.5-28Z"/>
        <g class="st7">
          <image width="945" height="199" transform="translate(-15.3 7.4) scale(.2)" xlink:href="Logotipo Hotel Carolina del Mar_Mesa de trabajo 1-1.png"/>
        </g>
      </g>
      <g>
        <rect class="st3" x="-10.9" y="140.5" width="226.7" height="69.7"/>
        <path class="st0" d="M-10.9,148.8v61.4h226.7v-44.5c-7.9,9.4-34.1,33-88.2,17.7-36.6-10.4-92.3-31.1-138.5-34.6Z"/>
        <path class="st8" d="M127.6,192.3c54.1,13.9,80.3-7.5,88.2-16v17.1c-7.9,8.5-45,19.6-99.1,5.6-36.6-9.4-81.2-34.6-127.4-37.8l-.2-.3c46.2,3.2,101.9,22,138.5,31.4Z"/>
        <path class="st1" d="M127.6,185.2c54.1,12.4,80.3-6.7,88.2-14.3v1c-7.9,7.6-34.1,29.7-88.2,17.2-36.6-8.4-92.3-19.9-138.5-22.8v-9.2c46.2,2.9,101.9,19.6,138.5,28Z"/>
        <g class="st7">
          <image width="945" height="199" transform="translate(-10.9 148.7) scale(.2)" xlink:href="Logotipo Hotel Carolina del Mar_Mesa de trabajo 1-2.png"/>
        </g>
      </g>
    </g>
  </g>
</svg>