<?xml version="1.0" encoding="UTF-8"?>
<svg id="Capa_2" data-name="Capa 2" xmlns="http://www.w3.org/2000/svg" viewBox="0 0 92.45 92.45">
  <defs>
    <style>
      .cls-1 {
        fill: #fff;
      }

      .cls-2 {
        fill: #396569;
        stroke: #fff;
        stroke-miterlimit: 10;
        stroke-width: 3px;
      }
    </style>
  </defs>
  <g id="Grids_Guides" data-name="Grids + Guides">
    <g>
      <circle class="cls-2" cx="46.22" cy="46.22" r="44.72"/>
      <g>
        <path class="cls-1" d="M62.77,51.2c.17.06.29.11.4.15,3.2,1.17,5.13,3.78,5.26,7.19.05,1.2.02,2.4,0,3.6,0,.8-.37,1.15-1.15,1.12-2.62-.09-4.67-1.24-6.19-3.36-.12-.17-.24-.35-.39-.57-.17.25-.32.47-.48.69-1.53,2.08-3.59,3.18-6.18,3.25-.64.02-1.05-.28-1.05-.87,0-1.69-.14-3.41.13-5.06.5-3.11,2.47-5.07,5.5-6.13-.16-.2-.3-.37-.45-.54-2.57-2.92-4.66-6.12-6.04-9.78-2.16-5.72-1.59-11.25,1.11-16.64,1.65-3.3,3.82-6.23,6.44-8.84.83-.83,1.19-.82,2.03.02,2.96,2.95,5.34,6.29,7.03,10.11,2.7,6.11,2.34,12.1-.65,18-1.32,2.59-2.97,4.95-4.89,7.13-.14.16-.26.32-.44.53ZM67.84,28.6c-2.08,1.88-4.44,2.89-7.16,2.88-2.72,0-5.06-1.02-7.12-2.87-.77,2.42-1.04,4.79-.72,7.19.79,5.86,3.92,10.49,7.87,14.81.89-1.06,1.79-2.04,2.58-3.1,2.87-3.8,5.02-7.91,5.35-12.77.14-2.07-.18-4.08-.81-6.14ZM60.72,17.13c-2.02,1.74-5.5,6.79-6.3,9.17-.06.17.03.45.16.6,3.1,3.54,9.12,3.54,12.23,0,.14-.16.19-.52.11-.71-.3-.71-.65-1.4-1.01-2.07-1.4-2.57-3.14-4.9-5.19-6.98ZM61.7,52.98c-.67,5.75,2.15,7.83,4.78,8.24.57-4.94-1.37-7.6-4.78-8.24ZM59.8,52.92c-.34.08-.54.11-.74.17-3.23.93-5.06,4.58-4.1,8.12,2.09-.16,4.2-2.09,4.6-4.38.22-1.25.16-2.54.23-3.91Z"/>
        <path class="cls-1" d="M29.6,47.73c-.62.64-1.12,1.19-1.66,1.72-.48.47-1.02.51-1.43.12-.44-.41-.42-.96.08-1.47,1.08-1.1,2.18-2.19,3.28-3.27.53-.53,1.03-.53,1.57,0,1.1,1.08,2.19,2.17,3.27,3.27.46.47.49,1.03.11,1.43-.4.42-.97.4-1.47-.09-.54-.53-1.07-1.09-1.6-1.63-.05.02-.11.05-.16.07,0,.82.02,1.65,0,2.47-.03.96.02,1.95-.18,2.87-.59,2.66-3.12,4.31-5.92,3.99-2.5-.29-4.58-2.56-4.59-5.16-.03-6.21-.01-12.42-.01-18.64,0-.26,0-.51,0-.82-.18-.07-.35-.13-.52-.2-1.51-.62-2.48-2.04-2.49-3.65,0-1.61.94-3.07,2.46-3.66.48-.18.57-.43.56-.89-.02-3.11-.02-6.21,0-9.32,0-.36.17-.83.44-1.05.57-.49,1.39-.02,1.45.79.04.47.01.94.01,1.41,0,2.76,0,5.53,0,8.29,0,.3-.02.53.37.69,1.7.68,2.63,2.04,2.62,3.74,0,1.68-.98,3.03-2.67,3.71-.1.04-.19.08-.3.13,0,.11-.02.22-.02.33,0,6.34,0,12.68,0,19.02,0,1.74,1.25,3.12,2.94,3.36,1.75.26,3.57-.84,3.8-2.58.21-1.59.04-3.22.04-5ZM23.89,28.71c-.01-1.12-.92-2.04-2.04-2.05-1.12,0-2.09.97-2.07,2.09.01,1.11.94,2.03,2.06,2.03,1.16,0,2.07-.92,2.05-2.08Z"/>
        <path class="cls-1" d="M69.56,76.61c-1.99,0-3.23-.65-4.27-1.73-.46-.48-.89-.99-1.35-1.46-1.52-1.58-3.43-1.57-4.95.02-.52.54-1,1.12-1.54,1.64-2.14,2.06-5.05,2.06-7.2.02-.54-.52-1.02-1.09-1.54-1.64-1.53-1.61-3.47-1.62-5-.02-.56.59-1.08,1.22-1.68,1.77-2.02,1.88-4.89,1.88-6.91,0-.58-.54-1.09-1.15-1.63-1.72-1.57-1.67-3.51-1.68-5.08,0-.43.45-.83.93-1.26,1.37-2.26,2.33-5.33,2.35-7.62.04-.47-.47-.9-.98-1.35-1.47-.67-.72-1.46-1.17-2.47-1.2-.6-.02-1-.45-.98-.97.02-.53.44-.93,1.04-.92,1.27.01,2.39.45,3.32,1.33.57.55,1.1,1.14,1.64,1.72,1.63,1.76,3.59,1.74,5.22-.03.52-.57,1.03-1.16,1.59-1.67,1.98-1.8,4.76-1.82,6.77-.05.62.55,1.16,1.2,1.73,1.81,1.59,1.68,3.49,1.67,5.09,0,.68-.71,1.32-1.47,2.09-2.08,1.73-1.39,4.21-1.4,5.96-.03.72.56,1.34,1.26,1.96,1.94,1.78,1.92,3.65,1.92,5.44-.02.46-.5.91-1.03,1.41-1.49,2.07-1.92,4.95-1.91,7.01.02.53.5,1.01,1.05,1.5,1.59,1.65,1.79,3.6,1.78,5.27-.01.67-.72,1.35-1.43,2.1-2.07.75-.65,1.7-.89,2.68-.94.68-.03,1.15.35,1.17.92.02.55-.39.95-1.04.98-.96.04-1.72.46-2.36,1.14-.57.61-1.12,1.24-1.72,1.82-.96.94-2.14,1.39-3.02,1.4Z"/>
        <path class="cls-1" d="M69.1,69.3c-1.35,0-2.52-.48-3.48-1.41-.6-.58-1.14-1.22-1.72-1.82-1.49-1.52-3.38-1.51-4.86,0-.58.6-1.11,1.25-1.72,1.82-2.01,1.87-4.82,1.9-6.86.08-.6-.54-1.13-1.17-1.69-1.76-1.6-1.71-3.53-1.7-5.13.01-.54.58-1.05,1.19-1.64,1.72-2.02,1.84-4.86,1.83-6.86-.02-.53-.49-1.02-1.04-1.51-1.58-1.71-1.88-3.61-1.89-5.35-.02-.52.56-1.02,1.16-1.6,1.67-2.07,1.81-4.86,1.76-6.86-.11-.58-.54-1.09-1.15-1.63-1.73-.67-.72-1.46-1.16-2.46-1.21-.62-.03-1-.43-.99-.95.01-.55.46-.95,1.09-.94,1.3.03,2.42.5,3.35,1.41.57.55,1.09,1.15,1.63,1.73,1.57,1.65,3.47,1.64,5.04-.01.69-.73,1.35-1.51,2.13-2.13,1.76-1.39,4.26-1.36,6.01.05.69.56,1.29,1.25,1.9,1.9,1.76,1.89,3.63,1.89,5.39-.03.51-.55,1-1.12,1.56-1.62,2-1.78,4.79-1.76,6.77.04.58.53,1.1,1.14,1.64,1.72,1.6,1.72,3.51,1.74,5.13.04.64-.66,1.23-1.39,1.93-1.97,1.96-1.61,4.63-1.53,6.52.16.57.51,1.08,1.1,1.6,1.67,1.72,1.87,3.61,1.86,5.36,0,.64-.69,1.29-1.37,2-1.99.77-.67,1.72-.93,2.73-.98.68-.03,1.15.33,1.18.9.03.54-.37.95-1.03.98-.95.05-1.72.46-2.36,1.14-.56.59-1.09,1.21-1.67,1.78-.98.95-2.15,1.45-3.53,1.44Z"/>
        <path class="cls-1" d="M34.17,15.31c3.53,0,6.4,2.9,6.39,6.43,0,3.52-2.92,6.42-6.43,6.4-3.51-.01-6.42-2.93-6.4-6.44.02-3.53,2.91-6.4,6.44-6.39ZM38.65,21.71c0-2.49-2-4.48-4.49-4.48-2.48,0-4.5,2-4.51,4.48-.01,2.49,2.04,4.54,4.53,4.53,2.47-.02,4.47-2.04,4.47-4.52Z"/>
        <path class="cls-1" d="M47.94,32.29c-.05,2.47-2.05,4.4-4.53,4.36-2.41-.04-4.38-2.09-4.32-4.5.05-2.48,2.06-4.41,4.53-4.36,2.42.04,4.37,2.07,4.32,4.5ZM43.49,34.73c1.4.01,2.54-1.1,2.56-2.49.02-1.38-1.11-2.53-2.51-2.54-1.4,0-2.54,1.1-2.56,2.49-.02,1.38,1.11,2.53,2.51,2.54Z"/>
        <path class="cls-1" d="M33.68,39.61c-1.93,0-3.52-1.59-3.51-3.52,0-1.93,1.61-3.52,3.53-3.51,1.93,0,3.52,1.61,3.51,3.53,0,1.93-1.59,3.5-3.53,3.5ZM35.29,36.11c0-.87-.71-1.6-1.58-1.62-.89-.02-1.64.74-1.63,1.63.01.88.72,1.58,1.61,1.57.88,0,1.6-.71,1.6-1.58Z"/>
        <path class="cls-1" d="M61.65,23.12c.01.51-.39.94-.91.95-.54.02-1-.41-.99-.94,0-.5.45-.93.94-.93.51,0,.95.42.96.92Z"/>
      </g>
    </g>
  </g>
</svg>