<?xml version="1.0" encoding="UTF-8"?>
<svg id="Capa_2" data-name="Capa 2" xmlns="http://www.w3.org/2000/svg" viewBox="0 0 91.85 91.85">
  <defs>
    <style>
      .cls-1 {
        fill: #fff;
      }

      .cls-2 {
        fill: #396569;
        stroke: #fff;
        stroke-miterlimit: 10;
        stroke-width: 3px;
      }
    </style>
  </defs>
  <g id="Grids_Guides" data-name="Grids + Guides">
    <g>
      <circle class="cls-2" cx="45.93" cy="45.93" r="44.43"/>
      <g>
        <path class="cls-1" d="M46.96,34.92l.38-.11,1.27-2.18c-1.06-5.25.03-11.53,4.71-14.71,5.2-3.54,11.25-1.91,16.52.54l.05.24c-.71,5.13-1.6,12.79-6.82,15.37-3.43,1.7-7.71,1.48-11.41,1.06-1.58,1.91-2.75,4.31-2.68,6.85.31,11.71,15,15.99,10.77,29.26-4.67,14.62-27.23,10.8-25.76-5.97.77-8.7,9.26-12.3,10.92-20.23.8-3.82.33-6.91-2.26-9.9l-4.01.34c-2.54-.12-5.09-.26-7.41-1.4-5.22-2.58-6.11-10.24-6.82-15.37l.05-.24c5.3-2.44,11.28-4.1,16.52-.54,4.68,3.18,5.77,9.45,4.71,14.71l1.28,2.3ZM36.43,31.63c.97.09,2.04-.06,3.02,0-2.41-2.73-5.45-4.84-8.44-6.88l2.12-3.19,9.07,7.14c.31-8.08-7.01-10.87-13.73-7.86.28,1.67.61,3.36,1.14,4.97,1.22,3.7,2.74,5.47,6.82,5.82ZM54.84,31.63h3.02c.56,0,2.12-.38,2.71-.59,3.89-1.41,4.5-6.66,5.25-10.2-6.73-3.01-14.03-.24-13.73,7.86l9.07-7.14,2.12,3.19c-2.98,2.06-6.04,4.14-8.44,6.88ZM47.32,50.13c-.43-.09-.29.06-.41.24-.69,1.07-1.23,2.22-2.01,3.3-3.45,4.8-8.35,8.37-7.06,15.19,2.28,12.07,20.97,9.18,18.56-4.08-1.09-5.96-6.86-9.27-9.08-14.65Z"/>
        <polygon class="cls-1" points="48.98 61.49 48.98 65.15 52.82 65.15 52.82 69 48.98 69 48.98 72.85 45.31 72.85 45.31 69 41.46 69 41.46 65.15 45.31 65.15 45.31 61.49 48.98 61.49"/>
      </g>
    </g>
  </g>
</svg>