<?xml version="1.0" encoding="UTF-8"?>
<svg id="Capa_2" data-name="Capa 2" xmlns="http://www.w3.org/2000/svg" viewBox="0 0 92.45 92.45">
  <defs>
    <style>
      .cls-1 {
        fill: #fff;
      }

      .cls-2 {
        fill: #396569;
        stroke: #fff;
        stroke-miterlimit: 10;
        stroke-width: 3px;
      }
    </style>
  </defs>
  <g id="Grids_Guides" data-name="Grids + Guides">
    <g>
      <circle class="cls-2" cx="46.22" cy="46.22" r="44.72"/>
      <g>
        <path class="cls-1" d="M13.89,22.36c.05-.16.11-.31.16-.47.54-1.93,2.22-3.29,4.23-3.42,1.91-.13,3.8,1.07,4.53,2.91.16.39.35.57.77.68,2.95.79,4.83,2.69,5.61,5.65.04.14.09.27.14.44,2.83-.66,5.65-.66,8.44.01.69-1.46.96-1.71,1.58-1.49.58.21.66.64.34,2.04.41.18.83.35,1.24.54,4.09,1.87,7.09,4.84,9,8.9.21.45.43.55.91.46.66-.12,1.34-.11,2.01-.2.21-.03.48-.15.6-.32,1.25-1.86,2.92-3.17,5.03-3.95.17-.06.39-.33.38-.5-.13-2.76,2.65-5.12,5.67-3.97.06.02.12.03.23.06.78-1.01,1.74-1.84,2.92-2.4,4.8-2.27,10.47,1.02,10.88,6.32,0,.1.01.21.01.32.01.74-.32,1.18-.9,1.21-.58.03-.96-.39-1-1.13-.14-2.61-1.87-4.76-4.31-5.38-2.5-.63-5,.4-6.37,2.63-.52.85-.91.94-1.75.39-.85-.56-1.83-.56-2.6,0-.77.57-1.06,1.49-.78,2.47.27.92.03,1.31-.92,1.54-2.32.54-4.07,1.87-5.22,3.95-.32.58-.74.77-1.39.72-.8-.05-1.61.02-2.39.04.22,1.47.52,2.79.58,4.12.07,1.38-.07,2.77-.18,4.15-.06.78-.57,1.3-1.22,1.44-.71.15-1.3-.11-1.77-.81-1.96-2.91-5.07-3.59-8.08-1.76-1.03.62-2,.34-2.48-.77-.56-1.28-1.41-2.26-2.73-2.94-2.21,7.34-4.4,14.62-6.58,21.84,2.72.4,5.42.67,8.07,1.21,2.65.55,5.23,1.37,7.95,2.1.18-.54.41-1.21.64-1.91-.23-.06-.41-.1-.59-.15-.7-.19-1.32-.61-1.42-1.3-.13-.98-.11-2,.03-2.97.06-.41.07-.68-.16-1.01-1.49-2.14-2.99-4.28-4.45-6.44-1.24-1.84-.16-4.18,2.01-4.39,1.1-.1,1.96.37,2.59,1.27,1.2,1.73,2.4,3.45,3.58,5.2.25.37.52.56.98.5.23-.03.46-.01.69.01.48.06.77.35.81.82.05.5-.19.92-.69.98-.73.07-1.47.07-2.19-.01-.25-.03-.52-.34-.69-.58-1.3-1.84-2.57-3.7-3.85-5.55-.12-.17-.23-.36-.38-.5-.33-.31-.72-.35-1.09-.1-.37.25-.49.62-.32,1.05.03.08.07.15.12.22,1.58,2.29,3.15,4.58,4.75,6.85.13.18.45.31.69.31,1.98.02,3.96.02,5.94,0,.22,0,.48-.12.66-.27.43-.36.83-.77,1.24-1.16-.01-.06-.03-.12-.04-.19-.27,0-.55.01-.82,0-.69-.04-1.07-.42-1.05-1,.03-.56.4-.88,1.09-.88,6.32,0,12.63-.01,18.95,0,1.95,0,3.19,1.74,2.68,3.61-.06.23.02.56.15.76.56.83.62,3.06.06,3.88-.45.66-1.1.96-1.88.98-.31,0-.62,0-1.02,0,.42,1.25.8,2.4,1.22,3.54.06.16.34.28.54.36,1.54.62,3.09,1.22,4.62,1.84.45.18.71.55.62,1.05-.08.47-.4.76-.87.77-.26,0-.53-.11-.77-.22-3.48-1.6-7.11-2.69-10.91-3.19-9.44-1.22-18.19.68-26.24,5.78-.3.19-.59.4-.9.59-.54.33-1.08.23-1.38-.23-.3-.46-.17-.99.36-1.36,2.3-1.58,4.74-2.89,7.31-3.96.17-.07.34-.15.62-.26-.23-.12-.38-.21-.54-.28-5.38-2.22-10.98-3.44-16.78-3.76-.38-.02-.56.07-.66.46-.2.79-.46,1.57-.71,2.35-.2.64-.65.92-1.17.77-.57-.16-.81-.65-.63-1.3.21-.75.43-1.49.66-2.26-1.01,0-1.98-.09-2.93.02-2.55.28-5.09.61-7.63.99-.65.1-1.1-.02-1.46-.54,0-.21,0-.42,0-.63.35-.23.68-.61,1.06-.67,2.35-.37,4.69-.74,7.06-.96,1.48-.14,2.98-.03,4.46-.03,2.29-7.62,4.54-15.08,6.82-22.66-.4,0-.71-.01-1.02,0-1.06.05-2.01.41-2.89.98-1.02.66-2.02.39-2.48-.72-1.24-3.03-4.78-4.43-7.78-2.98-.71.34-1.38.2-1.85-.31-.5-.54-.57-1.14-.27-1.81,1.08-2.45,2.63-4.54,4.64-6.3.5-.44,1.09-.43,1.45,0,.37.43.31.92-.17,1.39-.51.5-1.07.96-1.51,1.52-.83,1.05-1.58,2.15-2.36,3.23.05.06.1.13.15.19,1.62-.47,3.23-.52,4.83.02,1.6.54,2.86,1.54,3.89,2.94,1.66-4.35,3.49-8.48,6.79-11.82-1.25,0-2.49-.06-3.66.19-1.59.35-3.13.93-4.68,1.45-.66.22-1.16.14-1.41-.38-.26-.52-.05-1.02.58-1.32.45-.22.91-.45,1.39-.6.45-.15.5-.38.4-.8-.6-2.38-2.54-4.1-4.98-4.38-.79-.09-1-.28-1.14-1.08-.25-1.39-1.46-2.38-2.81-2.31-1.38.07-2.5,1.13-2.61,2.53-.04.5-.16.93-.68,1.09-.58.18-.96-.13-1.23-.62,0-.34,0-.67,0-1.01ZM70.56,70.09c-.32-.95-.61-1.85-.94-2.73-.05-.14-.29-.28-.45-.28-.65-.03-1.3,0-1.96-.02-.48,0-.87-.21-1.01-.7-.19-.64.26-1.18,1-1.18,1.68-.01,3.37,0,5.05-.01.2,0,.55-.07.56-.14.06-.52.1-1.05.02-1.56-.02-.11-.53-.21-.82-.21-7.33-.01-14.65,0-21.98,0-1.49,0-2.99,0-4.48,0-.2,0-.56.05-.57.12-.07.51-.12,1.04-.06,1.55.01.11.48.24.74.25,5.58.01,11.16.01,16.74.01.21,0,.42,0,.63,0,.51.04.82.34.86.84.05.51-.2.86-.7.98-.24.06-.5.06-.75.06-4.88,0-9.77,0-14.65.01-.23,0-.6.06-.65.19-.34.85-.6,1.73-.89,2.61.65.29,1.21.57,1.8.79.23.09.53.1.78.05,1.66-.37,3.3-.85,4.97-1.15,4.07-.74,8.16-.8,12.26-.23,1.47.21,2.93.5,4.5.76ZM38.72,44.47c.05-.06.11-.11.12-.16.79-3.31,1.31-6.65,1.02-10.06-.09-1.03-.37-2.07-.75-3.04-.43-1.1-1.22-1.29-2.24-.67-.46.28-.9.63-1.28,1.01-1.97,1.99-3.27,4.41-4.42,6.93-.49,1.07-.91,2.18-1.4,3.37,3.67-1.1,6.6-.22,8.96,2.61ZM41.39,31.68c.97,4.61.21,9.05-.79,13.55,1.66-.62,3.27-.73,4.9-.29,1.64.44,2.94,1.37,4.04,2.69,1.25-5.53-2.97-13.82-8.15-15.95ZM66.46,61.2c.22.09.28.13.34.13,1.66,0,3.32.02,4.98-.02.21,0,.52-.27.61-.49.24-.56-.19-1.1-.88-1.11-1.03-.02-2.06-.01-3.09,0-.16,0-.35.04-.46.14-.49.42-.96.86-1.5,1.35ZM59.44,59.9c-.02-.06-.04-.13-.07-.19-.68,0-1.36,0-2.05,0-1.15,0-1.95.5-2.56,1.63,1.01,0,1.99,0,2.97-.01.14,0,.31-.12.43-.22.44-.39.85-.8,1.28-1.21ZM60.85,61.27c1.98.46,3.51-.05,4.37-1.52-1.67-.04-3.46-.48-4.37,1.52Z"/>
        <path class="cls-1" d="M23.91,70.86c.51-.01.94.38.96.88.02.52-.4.99-.92,1-.49.01-.94-.4-.96-.9-.03-.53.4-.98.93-.99Z"/>
        <path class="cls-1" d="M27.91,73.32c0,.52-.47.97-.99.94-.5-.02-.91-.46-.9-.96,0-.53.45-.95.99-.93.51.02.91.44.9.94Z"/>
        <path class="cls-1" d="M68.74,73.78c.51,0,.93.4.96.9.02.51-.43.98-.95.99-.5,0-.92-.4-.94-.91-.02-.54.39-.98.93-.98Z"/>
        <path class="cls-1" d="M37.91,72.69c-.03.54-.48.92-1.02.88-.5-.04-.9-.5-.86-.99.04-.49.48-.9.98-.89.54.01.94.45.91,1Z"/>
      </g>
    </g>
  </g>
</svg>