<?xml version="1.0" encoding="UTF-8"?>
<svg id="Capa_2" data-name="Capa 2" xmlns="http://www.w3.org/2000/svg" viewBox="0 0 91.85 91.85">
  <defs>
    <style>
      .cls-1 {
        fill: #fff;
      }

      .cls-2 {
        fill: #396569;
        stroke: #fff;
        stroke-miterlimit: 10;
        stroke-width: 3px;
      }
    </style>
  </defs>
  <g id="Grids_Guides" data-name="Grids + Guides">
    <g>
      <circle class="cls-2" cx="45.93" cy="45.93" r="44.43"/>
      <g>
        <path class="cls-1" d="M51.41,31.28h5v-11.31c0-.23.92-1.24,1.21-1.41,1.15-.66,2.79-.34,3.33.91.12.27.46,1.72.46,1.92v9.88h4.76v-11.07c0-1.94,4.12-3.08,4.89-.13-.09,4.68.52,9.99.08,14.62-.54,5.62-4.45,9.69-9.74,11.25v23.28c0,3.51-4.31,4.22-4.99.72l-.02-24.14c-1.25-.22-2.44-.72-3.55-1.33-9.1-5.01-5.53-16.17-6.12-24.7.63-1.41,2.28-2.04,3.63-1.13.24.16,1.07,1.12,1.07,1.31v11.31ZM65.69,36.28h-13.8c2.21,6.36,11.68,6.46,13.8,0Z"/>
        <path class="cls-1" d="M28.56,55.79v14.64c0,.25-1.04,1.36-1.34,1.52-1.83.94-3.4-.41-3.66-2.22V21.15c.04-4.78,6.85-2.61,9.45-1.34,12.77,6.24,7.58,22.15,8.66,33.49.26.7-1.08,2.49-1.56,2.49h-11.54ZM36.65,51.03v-19.16c0-.31-.93-2.7-1.15-3.14-1.38-2.67-4.07-4.55-6.94-5.31v27.61h8.09Z"/>
      </g>
    </g>
  </g>
</svg>