<?xml version="1.0" encoding="UTF-8"?>
<svg id="Capa_2" data-name="Capa 2" xmlns="http://www.w3.org/2000/svg" viewBox="0 0 92.45 92.45">
  <defs>
    <style>
      .cls-1 {
        fill: #fff;
      }

      .cls-2 {
        fill: #396569;
        stroke: #fff;
        stroke-miterlimit: 10;
        stroke-width: 3px;
      }
    </style>
  </defs>
  <g id="Grids_Guides" data-name="Grids + Guides">
    <g>
      <circle class="cls-2" cx="46.22" cy="46.22" r="44.72"/>
      <g>
        <path class="cls-1" d="M16.82,70.37c2.4-2.72,5.35-4.7,8.52-6.41.54-.29,1.09-.55,1.67-.85-.32-1.28.24-2.26,1.09-3.17,1.95-2.1,2.87-4.67,3.18-7.47.14-1.23.19-2.47.28-3.75-.38-.05-.67-.09-.97-.13-1.31-.18-2.44-.72-3.4-1.64-.13-.13-.39-.15-.59-.18-.15-.02-.3.04-.45.05-.58.02-.98-.27-1.06-.75-.08-.49.19-.88.74-1.06.07-.02.14-.04.2-.05-.1-2.14.02-4.22,1.01-6.16.06-.12.03-.33-.02-.47-.68-2.05.99-4.94,3.11-5.22,1.35-.18,2.71-.01,4,.49.16.06.42.13.5.05.79-.72,1.71-.64,2.66-.48,2.25.39,4.03,1.94,4.23,4.01.15,1.6,1.07,2.44,2.34,3.04.83.4,1.73.64,2.6.96.04-.05.08-.1.12-.14-.11-.39-.22-.79-.33-1.18-.16-.6.08-1.09.59-1.25.5-.15.98.14,1.17.73.16.51.33,1.02.44,1.54.08.35.24.44.58.45,1.17.04,2.18.83,2.52,1.92.36,1.16-.02,2.15-1.14,2.91-.23.15-.35.26-.26.58.89,2.98,1.75,5.98,2.62,8.96.03.09.07.17.12.29,2.47-1.19,5.03-2.07,7.67-2.72.37-.09.3-.33.31-.57,0-2.37,0-4.75,0-7.12,0-.78,0-1.57,0-2.38-.51-.07-1-.1-1.48-.2-1.18-.24-2.26-.74-3.17-1.53-.3-.26-.57-.31-.93-.25-3.4.56-6.53-2.18-6.33-5.61.05-.81.37-1.64.71-2.4,1.03-2.26,2.47-4.26,4.02-6.19.19-.24.66-.38.99-.35.43.03.68.43.67.87-.02,1.48.67,2.59,1.73,3.53.46.41.9.83,1.34,1.25,2.41,2.34,1.61,5.48.1,7.14-.24.27-.48.55-.75.86.85.64,1.88.92,3.09.98v-.63c0-2.49-.01-4.98.01-7.46,0-.41-.12-.64-.45-.88-2.74-1.96-3.11-5.81-.81-8.25.72-.77,1.66-1.14,2.62-1.48,2.27-.8,4.63-1.17,7-1.49.46-.06.84.08,1.05.52.21.42.08.79-.23,1.1-.98.97-1.3,2.17-1.25,3.51.03.67.08,1.34.08,2.01.01,3.46-2.87,5.07-5.09,5.13-.34,0-.68,0-1.06,0v15.27c1.14,0,2.16-.33,3.21-1.05-.19-.13-.33-.22-.46-.33-2.43-2.18-2.49-5.51-.16-7.78.56-.55,1.15-1.07,1.7-1.62.76-.77,1.14-1.71,1.17-2.79.01-.51.15-.91.67-1.07.5-.15.83.11,1.12.49,1.59,2.09,3.11,4.21,4.16,6.64.85,1.97.57,3.8-.74,5.44-1.32,1.65-3.09,2.31-5.2,2-.21-.03-.5-.04-.64.07-1.39,1.19-3,1.79-4.85,1.86v2.21c1.36-.22,2.68-.51,4.03-.65,2.55-.26,5.1-.46,7.66-.64.82-.06,1.15.31,1.15,1.13,0,5.97,0,11.94.01,17.91,0,.52-.22.86-.58,1.16H16.82v-1.26ZM73.73,69.78c.02-.12.05-.24.05-.37,0-3.19,0-6.39,0-9.58,0-.48-.22-.76-.67-.86-.26-.06-.52-.12-.79-.14-1.38-.13-2.72-.09-3.82.94-.75.71-1.21.63-1.8-.23-.69-1.02-1.64-1.59-2.86-1.66-1.73-.1-3.27,1.01-3.73,2.7-.14.52-.35.92-.97.96-1.94.13-2.9,1.25-2.83,3.2.01.33-.19.71-.4,1-.32.42-.77.75-1.09,1.17-.64.84-1.07,1.78-1.17,2.88h20.07ZM46.78,58.38c0-.15.02-.24,0-.33-.47-2.24-1.31-4.32-2.76-6.1-1.59-1.95-3.54-3.24-6.16-3.29-.52,0-.85-.39-.83-.96.03-1.2,0-2.42.17-3.61.15-1.06.48-2.11.81-3.14.15-.46.6-.65,1.09-.53.45.11.65.45.71.93.04.33.13.72.35.94.47.49.99.97,1.57,1.31,1.68.96,3.55,1.28,5.45,1.37.66.03,1.33-.07,1.97-.2.39-.08.79-.33.71-.83-.08-.52-.46-.76-.99-.78-.59-.02-1.18-.04-1.77-.11-2.08-.26-4.04-.84-5.68-2.22-.91-.76-1.58-1.7-1.62-2.93-.05-1.41-.8-2.27-2.04-2.68-1.91-.64-2.02-.49-2.69,1.15-.92,2.23-1.29,4.6-1.46,6.99-.19,2.61-.21,5.23-.37,7.85-.23,3.9-1.32,7.48-4.12,10.37-.17.18-.26.44-.46.78,1.06-.4,1.94-.7,2.81-1.06.42-.17.85-.38,1.18-.67,2.72-2.39,4.23-5.38,4.36-9.02.03-.83.34-1.14,1.17-1.1,1.14.06,2.17.44,3.09,1.1,1.33.94,2.29,2.2,2.9,3.7.42,1.02.7,2.08,1.06,3.17.47-.03,1-.06,1.54-.09ZM46.68,60.29c-9.74.65-18.8,3.15-26.51,9.48h22.38c.22-3.67,1.63-6.79,4.13-9.48ZM51.75,58.75c-4.15,2.58-6.98,5.95-7.35,11.02h7.32c.03-.09.07-.16.08-.23.28-1.88,1.11-3.47,2.47-4.8.13-.12.19-.36.2-.55.1-2.19,1.47-3.85,3.62-4.4.18-.05.4-.22.48-.39.46-1.02,1.14-1.84,2.07-2.48.13-.09.25-.29.26-.45.04-.43.01-.87.01-1.35-2.62.66-5.1,1.51-7.44,2.69.27,1.28.18,1.68-.4,1.88-.57.19-.97-.08-1.32-.95ZM51.24,56.88c-.96-3.28-1.9-6.53-2.86-9.77-.04-.13-.29-.26-.46-.28-.93-.1-1.87-.11-2.8-.25-1.93-.29-3.75-.88-5.34-2.06-.22-.16-.43-.34-.72-.58-.08,1.04-.14,1.96-.21,2.83,6.15,1.46,8.6,5.96,9.93,11.64.83-.52,1.62-1.01,2.46-1.54ZM53.94,29.77c-1.2,1.73-2.37,3.35-2.99,5.26-.7,2.15,1.23,4.53,3.53,4.41-.09-.2-.17-.39-.25-.57-.45-.97-.68-1.99-.66-3.06.01-.51.29-.83.79-.91.47-.07.82.16.98.62.07.19.06.41.08.62.08,1.01.37,1.94.96,2.76,1.36-.79,2.06-2.41,1.68-3.85-.22-.82-.8-1.37-1.4-1.91-1.05-.95-2.12-1.89-2.7-3.37ZM69.71,37.12c-.52,1.29-1.38,2.19-2.33,3.03-.34.3-.68.61-1,.95-1.46,1.56-1.03,4.08.9,5.14.64-.88.91-1.87.98-2.93.04-.69.38-1.08.93-1.07.57.01.97.46.89,1.16-.09.77-.26,1.54-.45,2.3-.09.37-.29.72-.45,1.1,2.28.08,4.19-2.23,3.55-4.33-.6-1.96-1.81-3.6-3.01-5.34ZM62.83,31.38c2.26.54,4.25-.9,4.27-3.1.02-1.66-.3-3.34.46-5.06-2.17.41-4.21.72-6.05,1.73-.89.49-1.33,1.37-1.47,2.35-.18,1.21.14,2.27,1.07,3.18.07-.21.12-.36.17-.5.38-1.04.94-1.96,1.73-2.74.39-.38.92-.38,1.29-.03.36.34.39.81.07,1.24-.1.14-.23.26-.34.39-.61.73-1.04,1.54-1.2,2.53ZM62.78,56.07c2.04-.24,3.72.42,5.08,1.87,1.86-1.29,3.86-1.12,5.88-.75v-3.91c-3.72.18-7.35.59-10.96,1.39v1.39ZM43.24,58.61c-.36-3.14-2.49-5.86-4.43-6.09-.26,2.74-1.28,5.2-2.95,7.4,2.47-.44,4.91-.87,7.38-1.31ZM31.52,46.83c.2-3.68.51-7.28,1.69-10.79-1.46.53-2.57,2.18-2.6,3.94-.04,2.14-.45,4.14-2.01,5.77.83.76,1.78,1.05,2.92,1.08ZM31.14,34.92c-.64-.13-1.24.01-1.7.6-.47.61-.69,1.3-.67,2.09.18.03.33.06.33.06.73-.98,1.39-1.87,2.04-2.75ZM28.69,39.74c-.64,1.2-.8,2.5-.79,3.82.74-1.18.89-2.48.79-3.82Z"/>
        <path class="cls-1" d="M16.82,21.68c.49-.55,2.11-.86,2.72-.43.25.17.48.6.44.88-.04.28-.38.69-.64.74-.59.11-1.22.09-1.82.01-.25-.03-.47-.34-.7-.52,0-.23,0-.46,0-.69Z"/>
        <path class="cls-1" d="M30.6,22.05c0,2.53-2.09,4.59-4.63,4.57-2.53-.01-4.58-2.1-4.56-4.64.02-2.5,2.09-4.54,4.6-4.54,2.53,0,4.59,2.07,4.59,4.61ZM25.95,24.78c1.5.02,2.77-1.18,2.8-2.68.04-1.53-1.19-2.81-2.7-2.83-1.5-.02-2.77,1.18-2.8,2.68-.04,1.53,1.19,2.81,2.7,2.83Z"/>
        <path class="cls-1" d="M35.19,28.44c0-2.53,2.08-4.58,4.62-4.57,2.5.01,4.56,2.08,4.56,4.58,0,2.52-2.08,4.6-4.6,4.6-2.53,0-4.59-2.07-4.58-4.61ZM37.02,28.46c0,1.51,1.22,2.74,2.72,2.75,1.52.01,2.79-1.24,2.78-2.76,0-1.5-1.24-2.74-2.73-2.75-1.53-.01-2.77,1.23-2.77,2.76Z"/>
        <path class="cls-1" d="M25.09,14.43c0-.25-.02-.5,0-.75.05-.5.45-.86.93-.83.51.03.83.32.88.82.05.51.04,1.03,0,1.55-.03.5-.45.85-.93.84-.48-.01-.85-.37-.89-.88-.02-.25,0-.5,0-.75,0,0,0,0,0,0Z"/>
        <path class="cls-1" d="M33.62,22.94c-.25,0-.5.02-.75,0-.54-.04-.91-.43-.9-.93.01-.48.36-.86.88-.89.48-.03.96-.03,1.43,0,.54.03.91.43.9.93-.01.48-.36.85-.88.89-.23.02-.46,0-.69,0Z"/>
        <path class="cls-1" d="M25.09,29.6c0-.25-.02-.5,0-.75.05-.51.44-.85.91-.85.48,0,.87.35.9.86.03.5.03,1,0,1.49-.03.51-.43.86-.91.85-.48,0-.86-.36-.9-.86-.02-.25,0-.5,0-.75Z"/>
        <path class="cls-1" d="M30.82,25.9c.29.14.52.2.68.35.36.31.7.65,1.01,1.01.35.4.33.89,0,1.24-.35.37-.87.4-1.29.03-.37-.33-.77-.66-1.03-1.07-.16-.26-.19-.7-.09-1,.09-.24.46-.38.71-.57Z"/>
        <path class="cls-1" d="M31.81,15.26c.74.01,1.22.8.82,1.36-.35.49-.82.91-1.28,1.3-.32.27-.79.25-1.04-.08-.2-.26-.38-.81-.24-1,.4-.56.96-1.01,1.47-1.49.07-.07.21-.06.27-.07Z"/>
        <path class="cls-1" d="M20.03,28.83c-.18-.14-.52-.28-.64-.53-.12-.25-.13-.69.01-.9.34-.47.79-.89,1.24-1.26.32-.27.79-.26,1.04.06.2.26.39.81.26,1-.42.57-.99,1.03-1.51,1.53-.06.06-.18.05-.41.1Z"/>
        <path class="cls-1" d="M21.2,18.15c-.29-.14-.53-.19-.69-.34-.36-.31-.7-.65-1.02-1.01-.37-.42-.35-.93.03-1.29.35-.34.84-.37,1.24-.01.37.33.77.66,1.03,1.07.17.26.2.7.1,1-.08.24-.45.39-.7.58Z"/>
      </g>
    </g>
  </g>
</svg>